<?xml version="1.0" standalone="no"?>
<!DOCTYPE svg PUBLIC "-//W3C//DTD SVG 20010904//EN"
 "http://www.w3.org/TR/2001/REC-SVG-20010904/DTD/svg10.dtd">
<svg version="1.0" xmlns="http://www.w3.org/2000/svg"
 width="520.000000pt" height="520.000000pt" viewBox="0 0 520.000000 520.000000"
 preserveAspectRatio="xMidYMid meet">
<metadata>
Created by potrace 1.11, written by Peter Selinger 2001-2013
</metadata>
<g transform="translate(0.000000,520.000000) scale(0.100000,-0.100000)"
fill="#000000" stroke="none">
<path d="M1522 5156 c7 -8 15 -12 17 -11 5 6 -10 25 -20 25 -5 0 -4 -6 3 -14z"/>
<path d="M1475 5151 c-3 -5 0 -13 6 -17 8 -5 9 -3 4 6 -6 10 -4 12 9 7 10 -4
15 -3 11 3 -8 13 -22 13 -30 1z"/>
<path d="M1461 5114 c0 -11 3 -14 6 -6 3 7 2 16 -1 19 -3 4 -6 -2 -5 -13z"/>
<path d="M1553 5105 c0 -8 4 -15 9 -15 4 0 8 4 8 9 0 6 -4 12 -8 15 -5 3 -9
-1 -9 -9z"/>
<path d="M1151 5069 c-69 -75 -151 -367 -245 -869 -19 -102 -37 -201 -40 -220
-3 -19 -8 -46 -11 -60 -3 -14 -12 -65 -20 -115 -8 -49 -17 -101 -20 -114 -2
-14 -7 -47 -10 -74 -3 -28 -8 -53 -9 -56 -2 -3 -7 -28 -11 -56 -3 -27 -15
-102 -26 -166 -10 -64 -21 -129 -23 -145 -2 -16 -6 -45 -10 -64 -3 -19 -8 -53
-11 -75 -3 -22 -14 -92 -25 -155 -10 -63 -21 -135 -24 -160 -3 -25 -8 -56 -11
-70 -2 -13 -7 -42 -10 -65 -3 -22 -10 -65 -15 -95 -5 -30 -12 -73 -15 -95 -4
-22 -15 -94 -26 -160 -11 -66 -22 -131 -24 -145 -2 -14 -7 -41 -10 -60 -31
-192 -100 -573 -132 -730 -8 -41 -17 -86 -19 -100 -15 -82 -101 -430 -126
-510 -17 -52 -68 -192 -113 -310 -46 -118 -99 -257 -118 -307 l-35 -93 2408 0
c2224 0 2408 1 2414 16 4 9 4 19 1 22 -3 3 -5 0 -5 -7 0 -7 -4 -10 -9 -6 -6 3
-8 14 -6 25 2 12 0 18 -6 15 -5 -4 -12 2 -16 11 -3 10 -13 25 -21 33 -40 45
-91 124 -85 134 3 6 1 7 -5 3 -7 -4 -17 3 -23 18 -7 14 -16 23 -20 20 -5 -3
-9 2 -9 10 0 9 -7 16 -15 16 -8 0 -15 6 -15 13 0 7 -11 24 -25 39 -14 15 -25
31 -25 37 0 5 -4 11 -8 13 -18 7 -92 123 -87 136 2 7 0 10 -5 7 -9 -6 -14 8
-11 28 1 5 -3 6 -8 3 -5 -4 -16 7 -25 24 -9 20 -10 28 -3 24 7 -3 3 3 -8 13
-26 23 -77 118 -68 127 3 3 1 6 -4 6 -6 0 -21 21 -33 48 -12 26 -26 57 -32 69
-6 11 -7 27 -3 34 5 7 4 10 -2 6 -13 -8 -26 20 -16 35 3 7 1 8 -5 4 -7 -4 -14
4 -18 21 -4 15 -16 47 -26 71 -11 23 -17 46 -13 51 3 5 -1 11 -7 14 -10 3 -10
7 1 21 8 9 11 19 7 23 -3 3 -6 1 -6 -5 0 -7 -5 -12 -11 -12 -6 0 -8 7 -5 16 3
8 2 12 -4 9 -6 -3 -11 3 -11 14 -1 12 -2 27 -3 34 -1 6 -7 18 -13 25 -11 12
-18 42 -14 65 0 4 -5 7 -12 7 -8 0 -7 4 3 10 13 9 13 10 0 10 -13 0 -13 1 0
10 12 8 12 10 -5 10 -15 0 -17 3 -7 9 11 7 11 9 -2 14 -19 7 -22 28 -3 23 6
-1 9 -1 4 1 -4 3 -5 9 -1 14 3 5 0 8 -8 7 -7 -2 -13 6 -13 17 -1 11 -5 26 -9
34 -15 23 -55 193 -49 207 3 8 0 14 -6 14 -16 0 -13 25 4 40 8 7 15 18 15 24
0 6 -5 3 -11 -6 -5 -10 -14 -18 -18 -18 -13 0 -29 87 -19 104 6 11 5 14 -5 10
-7 -2 -14 1 -14 8 -1 7 -8 41 -16 76 -10 43 -12 62 -4 62 6 0 3 6 -8 14 -12 8
-16 20 -12 35 3 11 2 19 -2 17 -6 -4 -56 181 -65 235 -1 8 -5 20 -10 28 -6 9
-3 18 8 26 15 11 15 13 1 19 -11 4 -14 2 -9 -6 4 -7 3 -8 -5 -4 -7 4 -11 15
-9 24 1 10 -1 23 -5 29 -5 7 -10 21 -12 30 -2 10 -8 32 -14 50 -8 26 -6 33 7
36 12 3 10 5 -5 6 -24 1 -32 26 -10 34 6 3 3 6 -7 6 -11 1 -16 4 -13 8 4 3 2
11 -3 18 -5 6 -11 20 -13 31 -1 10 -6 25 -11 33 -5 8 -3 16 5 22 11 7 11 9 -2
9 -10 0 -20 11 -23 25 -7 28 -5 41 7 37 5 -1 6 2 2 8 -3 6 -10 8 -15 5 -9 -6
-43 58 -45 82 0 7 -5 17 -12 24 -8 8 -9 20 -3 38 8 21 7 23 -2 9 -11 -15 -15
-12 -35 24 -13 22 -20 45 -16 51 3 5 1 7 -5 3 -6 -3 -18 4 -26 16 -20 28 -20
38 0 38 9 0 12 -5 8 -12 -4 -7 -3 -8 4 -4 6 4 9 13 6 21 -5 11 -11 12 -26 4
-16 -8 -23 -7 -34 8 -7 10 -14 24 -14 31 0 7 -4 10 -10 7 -5 -3 -10 0 -10 7 0
15 -109 91 -153 108 -142 52 -296 -72 -434 -351 -62 -124 -108 -243 -222 -564
-170 -477 -283 -765 -309 -785 -4 -3 -8 -11 -10 -18 -3 -16 -54 -96 -64 -100
-5 -2 -8 -11 -8 -19 0 -10 -6 -13 -16 -9 -9 3 -12 2 -9 -5 10 -14 -13 -37 -59
-61 -23 -12 -42 -21 -42 -22 -5 -3 -47 41 -56 58 -8 15 -7 18 4 13 8 -3 15 1
15 8 0 7 -8 10 -17 8 -16 -4 -38 30 -43 68 -2 8 -5 19 -8 24 -6 10 -20 61 -19
70 0 3 -7 19 -15 35 -12 23 -13 30 -3 30 10 0 10 2 0 8 -11 8 -38 91 -49 156
-2 16 -9 40 -14 53 -11 30 -11 36 -1 29 5 -3 9 1 9 9 0 8 -4 12 -8 10 -3 -3
-12 15 -18 40 -14 54 -14 58 -1 50 6 -3 10 -1 10 4 0 6 -7 11 -15 11 -13 0
-14 4 -4 21 7 13 7 19 1 15 -6 -3 -13 -2 -17 4 -3 5 0 10 7 10 11 0 11 2 0 9
-7 4 -15 26 -17 47 -1 21 -7 48 -11 59 -5 11 -8 37 -8 57 0 20 -4 34 -9 31 -4
-2 -6 -1 -5 4 1 4 -4 40 -12 78 -8 39 -14 77 -15 85 0 8 -3 20 -6 25 -4 6 -6
24 -5 42 0 17 -2 29 -6 26 -5 -2 -8 4 -8 14 0 10 -3 29 -7 42 -4 16 -3 22 5
17 7 -4 6 4 -3 20 -7 14 -12 35 -10 45 2 11 0 19 -6 19 -5 0 -9 9 -9 21 0 11
5 17 10 14 6 -3 10 -1 10 4 0 6 -7 11 -15 11 -8 0 -15 8 -15 18 0 14 2 15 10
2 5 -8 10 -10 10 -4 0 5 -5 15 -12 22 -6 6 -13 24 -15 39 -2 15 -5 42 -7 58
-2 17 -6 37 -9 45 -14 40 -17 70 -7 70 6 0 8 -6 4 -12 -4 -7 -3 -9 1 -5 15 13
14 34 -2 33 -10 -1 -17 10 -19 28 -1 16 -8 51 -14 78 -5 27 -8 54 -4 59 3 5 0
9 -7 9 -8 0 -7 5 2 17 10 12 10 15 1 9 -7 -4 -12 -4 -11 1 1 4 0 10 -1 13 -1
3 -3 14 -4 25 -2 11 -7 40 -11 65 -5 25 -9 54 -10 66 -1 11 -4 24 -7 30 -3 5
-11 43 -18 84 -7 41 -16 85 -21 97 -6 16 -4 23 9 26 16 4 16 5 0 6 -20 1 -25
31 -5 31 8 0 8 3 -2 9 -18 12 -27 55 -9 45 7 -4 5 2 -5 13 -15 17 -16 25 -8
42 10 18 9 20 -6 14 -16 -6 -17 -5 -3 13 8 10 10 15 5 11 -14 -12 -33 74 -22
98 5 11 6 16 1 12 -10 -10 -33 74 -29 108 1 14 -2 22 -6 19 -5 -3 -7 9 -5 25
2 17 -1 28 -5 25 -5 -3 -9 -1 -9 4 0 5 10 14 23 21 20 10 21 11 1 6 -18 -5
-23 0 -27 25 -7 34 -6 46 6 42 5 -1 6 2 2 8 -3 6 -11 8 -16 5 -5 -4 -9 4 -9
17 0 13 -8 50 -18 83 -10 33 -18 70 -17 83 1 12 -3 22 -8 22 -5 0 -3 8 4 17 8
9 9 14 3 10 -15 -8 -27 34 -17 59 4 11 3 15 -5 10 -7 -4 -10 1 -7 14 2 11 0
20 -6 20 -5 0 -9 7 -9 16 0 14 3 14 18 3 9 -7 7 -2 -5 11 -20 22 -21 24 -5 36
16 11 15 12 -3 11 -16 -2 -20 4 -20 26 1 15 -4 27 -9 27 -5 0 -6 3 -3 7 4 3 3
11 -2 17 -5 6 -14 36 -21 66 -7 30 -15 60 -19 65 -3 6 -6 15 -7 22 -5 32 -80
213 -103 248 -35 52 -62 56 -100 14z"/>
<path d="M1466 5075 c4 -8 11 -15 16 -15 6 0 5 6 -2 15 -7 8 -14 15 -16 15 -2
0 -1 -7 2 -15z"/>
<path d="M1524 5079 c-3 -6 -1 -16 5 -22 9 -9 10 -7 5 7 -6 15 -4 17 6 11 9
-5 11 -4 6 3 -9 15 -13 15 -22 1z"/>
<path d="M1576 5082 c-3 -5 1 -9 9 -9 8 0 12 4 9 9 -3 4 -7 8 -9 8 -2 0 -6 -4
-9 -8z"/>
<path d="M1580 5056 c0 -2 7 -7 16 -10 8 -3 12 -2 9 4 -6 10 -25 14 -25 6z"/>
<path d="M1416 5034 c-3 -7 0 -16 6 -20 7 -4 8 -3 4 4 -4 7 -2 13 3 13 6 1 17
2 24 3 6 1 19 -2 27 -8 12 -8 13 -8 2 4 -16 18 -60 21 -66 4z"/>
<path d="M1508 5023 c7 -3 16 -2 19 1 4 3 -2 6 -13 5 -11 0 -14 -3 -6 -6z"/>
<path d="M1397 4995 c-6 -15 10 -32 20 -21 4 3 1 6 -5 6 -6 0 -9 7 -6 15 4 8
4 15 1 15 -3 0 -7 -7 -10 -15z"/>
<path d="M1485 5000 c-3 -6 1 -7 9 -4 18 7 21 14 7 14 -6 0 -13 -4 -16 -10z"/>
<path d="M1610 5006 c0 -2 7 -7 16 -10 8 -3 12 -2 9 4 -6 10 -25 14 -25 6z"/>
<path d="M1448 4993 c6 -2 9 -10 6 -15 -4 -7 -2 -8 5 -4 13 9 5 26 -12 25 -9
0 -8 -2 1 -6z"/>
<path d="M1575 4990 c-3 -6 1 -7 9 -4 18 7 21 14 7 14 -6 0 -13 -4 -16 -10z"/>
<path d="M1534 4982 c3 -5 0 -13 -6 -15 -9 -4 -10 -6 -1 -6 17 -1 25 16 12 25
-7 4 -9 3 -5 -4z"/>
<path d="M1602 4981 c-10 -6 -10 -10 2 -20 11 -9 16 -9 22 0 5 8 3 9 -6 4 -10
-6 -12 -4 -7 8 7 19 7 20 -11 8z"/>
<path d="M1475 4969 c-4 -6 -5 -12 -2 -15 2 -3 7 2 10 11 7 17 1 20 -8 4z"/>
<path d="M1380 4966 c0 -2 8 -10 18 -17 15 -13 16 -12 3 4 -13 16 -21 21 -21
13z"/>
<path d="M1560 4956 c0 -8 4 -17 9 -20 5 -4 7 3 4 14 -6 23 -13 26 -13 6z"/>
<path d="M1639 4955 c-1 -3 -2 -10 -3 -15 0 -6 -8 -15 -16 -20 -9 -6 -10 -10
-3 -10 13 0 26 17 29 38 2 11 -5 18 -7 7z"/>
<path d="M1428 4943 c6 -2 9 -10 6 -15 -4 -7 -2 -8 5 -4 13 9 5 26 -12 25 -9
0 -8 -2 1 -6z"/>
<path d="M1510 4940 c0 -5 5 -10 10 -10 6 0 10 5 10 10 0 6 -4 10 -10 10 -5 0
-10 -4 -10 -10z"/>
<path d="M1375 4920 c3 -5 8 -10 11 -10 2 0 4 5 4 10 0 6 -5 10 -11 10 -5 0
-7 -4 -4 -10z"/>
<path d="M1482 4921 c-11 -6 -9 -9 6 -13 15 -4 19 -2 15 8 -6 16 -4 16 -21 5z"/>
<path d="M1587 4894 c2 -7 11 -10 19 -7 19 7 18 10 -5 16 -13 3 -18 1 -14 -9z"/>
<path d="M1633 4885 c0 -8 4 -15 9 -15 4 0 8 4 8 9 0 6 -4 12 -8 15 -5 3 -9
-1 -9 -9z"/>
<path d="M1531 4874 c0 -11 3 -14 6 -6 3 7 2 16 -1 19 -3 4 -6 -2 -5 -13z"/>
<path d="M1397 4873 c-10 -9 -9 -23 1 -23 5 0 9 7 9 15 0 17 -1 18 -10 8z"/>
<path d="M1550 4863 c0 -24 64 -41 77 -20 4 6 1 7 -7 2 -9 -6 -12 -4 -8 7 4 8
1 15 -7 15 -7 0 -11 -6 -8 -13 6 -17 -26 -11 -38 7 -5 9 -9 10 -9 2z"/>
<path d="M1666 4856 c6 -15 4 -17 -6 -11 -9 6 -11 4 -5 -4 5 -9 10 -10 18 -2
8 8 7 14 -2 24 -10 10 -11 8 -5 -7z"/>
<path d="M1414 4839 c-5 -8 -3 -9 6 -4 10 6 12 4 7 -7 -4 -12 -1 -14 14 -11
11 3 18 6 17 7 -2 1 -10 7 -20 14 -12 10 -18 10 -24 1z"/>
<path d="M1480 4835 c-11 -13 -10 -14 4 -9 9 3 16 10 16 15 0 13 -6 11 -20 -6z"/>
<path d="M1523 4838 c-11 -19 -12 -37 -3 -43 5 -3 7 3 5 12 -1 10 2 24 8 31 5
6 7 12 4 12 -3 0 -9 -6 -14 -12z"/>
<path d="M1560 4811 c0 -6 4 -13 10 -16 6 -3 7 1 4 9 -7 18 -14 21 -14 7z"/>
<path d="M1467 4799 c7 -9 10 -19 6 -22 -3 -4 -1 -7 5 -7 17 0 15 16 -5 31
-16 12 -17 12 -6 -2z"/>
<path d="M1541 4794 c0 -11 3 -14 6 -6 3 7 2 16 -1 19 -3 4 -6 -2 -5 -13z"/>
<path d="M1625 4800 c-3 -6 1 -7 9 -4 18 7 21 14 7 14 -6 0 -13 -4 -16 -10z"/>
<path d="M1599 4798 c-8 -27 -5 -36 9 -30 10 4 12 7 4 10 -7 2 -10 8 -6 13 3
5 3 9 0 9 -3 0 -6 -1 -7 -2z"/>
<path d="M1405 4782 c-13 -9 -17 -32 -6 -32 5 0 11 9 14 20 6 22 6 22 -8 12z"/>
<path d="M1630 4776 c0 -2 7 -9 15 -16 9 -7 15 -8 15 -2 0 5 -7 12 -15 16 -8
3 -15 4 -15 2z"/>
<path d="M1675 4750 c0 -16 3 -31 6 -34 3 -3 5 7 5 23 -1 16 -3 32 -6 35 -3 3
-5 -8 -5 -24z"/>
<path d="M1441 4756 c-9 -10 -8 -15 3 -19 11 -4 13 -1 9 10 -5 12 -3 14 7 8 9
-5 11 -4 6 3 -9 15 -11 15 -25 -2z"/>
<path d="M1547 4751 c-3 -13 -1 -18 9 -14 7 2 10 11 7 19 -7 19 -10 18 -16 -5z"/>
<path d="M1469 4723 c-13 -16 -12 -17 4 -4 9 7 17 15 17 17 0 8 -8 3 -21 -13z"/>
<path d="M1508 4733 c6 -2 9 -10 6 -15 -4 -7 -2 -8 5 -4 13 9 5 26 -12 25 -9
0 -8 -2 1 -6z"/>
<path d="M1560 4720 c-8 -5 -10 -10 -5 -10 6 0 17 5 25 10 8 5 11 10 5 10 -5
0 -17 -5 -25 -10z"/>
<path d="M1627 4719 c7 -9 10 -19 6 -22 -3 -4 -1 -7 5 -7 17 0 15 16 -5 31
-16 12 -17 12 -6 -2z"/>
<path d="M1395 4700 c3 -5 8 -10 11 -10 2 0 4 5 4 10 0 6 -5 10 -11 10 -5 0
-7 -4 -4 -10z"/>
<path d="M1482 4701 c-10 -6 -10 -10 2 -20 11 -9 16 -9 22 0 5 8 3 9 -6 4 -10
-6 -12 -4 -7 8 7 19 7 20 -11 8z"/>
<path d="M1525 4699 c-4 -6 -5 -12 -2 -15 2 -3 7 2 10 11 7 17 1 20 -8 4z"/>
<path d="M1587 4696 c5 -14 3 -17 -7 -11 -9 6 -11 4 -6 -4 5 -7 10 -10 14 -7
3 3 11 -2 19 -12 12 -16 13 -16 6 2 -5 14 -3 17 7 11 9 -6 11 -4 6 4 -5 7 -10
10 -14 7 -3 -3 -11 2 -19 12 -12 16 -13 16 -6 -2z"/>
<path d="M1710 4685 c0 -5 5 -17 10 -25 5 -8 10 -10 10 -5 0 6 -5 17 -10 25
-5 8 -10 11 -10 5z"/>
<path d="M1434 4672 c3 -5 0 -13 -6 -15 -8 -3 -6 -6 5 -6 19 -1 23 14 5 25 -6
4 -8 3 -4 -4z"/>
<path d="M1550 4660 c0 -5 5 -10 10 -10 6 0 10 5 10 10 0 6 -4 10 -10 10 -5 0
-10 -4 -10 -10z"/>
<path d="M1483 4640 c-11 -16 -10 -18 2 -14 8 4 15 12 15 20 0 19 -3 18 -17
-6z"/>
<path d="M1634 4649 c-3 -6 -2 -15 3 -20 5 -5 9 -1 9 11 0 23 -2 24 -12 9z"/>
<path d="M1668 4653 c7 -3 16 -2 19 1 4 3 -2 6 -13 5 -11 0 -14 -3 -6 -6z"/>
<path d="M1513 4635 c0 -8 4 -12 9 -9 5 3 6 10 3 15 -9 13 -12 11 -12 -6z"/>
<path d="M1672 4631 c-11 -6 -9 -9 6 -13 15 -4 19 -2 15 8 -6 16 -4 16 -21 5z"/>
<path d="M1536 4622 c-2 -4 -1 -14 3 -20 6 -10 11 -9 21 3 11 13 10 14 -5 9
-13 -5 -16 -4 -11 4 4 7 5 12 2 12 -3 0 -7 -4 -10 -8z"/>
<path d="M1598 4622 c-17 -7 -16 -8 2 -19 16 -11 18 -10 13 4 -5 12 -3 14 7 8
9 -5 11 -4 6 3 -4 7 -8 12 -9 11 -1 0 -10 -4 -19 -7z"/>
<path d="M1716 4615 c-9 -26 -7 -32 5 -12 6 10 9 21 6 23 -2 3 -7 -2 -11 -11z"/>
<path d="M1446 4598 c3 -5 9 -7 12 -4 3 3 12 0 21 -6 13 -10 14 -10 4 2 -15
16 -46 23 -37 8z"/>
<path d="M1633 4568 c-2 -18 0 -20 7 -8 12 18 13 30 2 30 -4 0 -9 -10 -9 -22z"/>
<path d="M1684 4575 c-4 -8 -10 -13 -14 -10 -4 3 -10 -2 -13 -10 -4 -10 -1
-12 10 -8 12 5 14 3 8 -8 -4 -8 -5 -11 -1 -7 4 3 8 10 8 15 0 4 4 16 9 26 5 9
7 17 4 17 -3 0 -8 -7 -11 -15z"/>
<path d="M1725 4580 c-3 -6 1 -7 9 -4 18 7 21 14 7 14 -6 0 -13 -4 -16 -10z"/>
<path d="M1500 4569 c0 -5 -5 -7 -10 -4 -6 3 -13 -1 -16 -9 -3 -9 -11 -13 -17
-9 -6 4 -7 1 -2 -7 6 -10 11 -9 21 4 7 10 16 17 20 16 5 -1 10 3 12 9 2 6 1
11 -2 11 -3 0 -6 -5 -6 -11z"/>
<path d="M1564 4559 c-3 -6 -1 -16 5 -22 9 -9 10 -7 5 7 -5 13 -4 17 4 12 7
-4 12 -2 12 3 0 14 -17 14 -26 0z"/>
<path d="M1745 4559 c-4 -6 -5 -12 -2 -15 2 -3 7 2 10 11 7 17 1 20 -8 4z"/>
<path d="M1513 4543 c4 -3 1 -13 -6 -22 -11 -14 -10 -14 6 -2 20 15 22 31 5
31 -6 0 -8 -3 -5 -7z"/>
<path d="M1605 4530 c-16 -7 -17 -9 -3 -9 9 -1 20 4 23 9 7 11 7 11 -20 0z"/>
<path d="M1715 4530 c-4 -6 -10 -8 -15 -5 -5 3 -11 1 -14 -4 -8 -13 22 -7 36
7 7 7 9 12 6 12 -4 0 -10 -5 -13 -10z"/>
<path d="M1476 4507 c3 -10 9 -15 12 -12 3 3 0 11 -7 18 -10 9 -11 8 -5 -6z"/>
<path d="M1575 4499 c-6 -8 -4 -10 5 -4 10 6 12 4 6 -11 -6 -15 -5 -17 5 -6 9
9 10 15 2 23 -8 8 -13 7 -18 -2z"/>
<path d="M1496 4483 c-6 -14 -5 -15 5 -6 7 7 10 15 7 18 -3 3 -9 -2 -12 -12z"/>
<path d="M1711 4484 c0 -11 3 -14 6 -6 3 7 2 16 -1 19 -3 4 -6 -2 -5 -13z"/>
<path d="M1620 4480 c8 -5 20 -10 25 -10 6 0 3 5 -5 10 -8 5 -19 10 -25 10 -5
0 -3 -5 5 -10z"/>
<path d="M1534 4462 c3 -6 -2 -13 -11 -15 -16 -4 -16 -5 -1 -6 21 -1 32 15 17
25 -7 4 -9 3 -5 -4z"/>
<path d="M1604 4459 c-3 -6 -2 -15 4 -21 6 -6 12 -6 17 3 6 8 4 10 -5 4 -10
-6 -12 -4 -7 8 7 19 2 23 -9 6z"/>
<path d="M1668 4463 c6 -2 9 -10 6 -15 -4 -7 -2 -8 5 -4 13 9 5 26 -12 25 -9
0 -8 -2 1 -6z"/>
<path d="M1756 4447 c3 -10 9 -15 12 -12 3 3 0 11 -7 18 -10 9 -11 8 -5 -6z"/>
<path d="M1567 4439 c7 -7 15 -10 18 -7 3 3 -2 9 -12 12 -14 6 -15 5 -6 -5z"/>
<path d="M1722 4441 c-11 -6 -9 -9 6 -13 15 -4 19 -2 15 8 -6 16 -4 16 -21 5z"/>
<path d="M1470 4430 c0 -5 5 -10 11 -10 5 0 7 5 4 10 -3 6 -8 10 -11 10 -2 0
-4 -4 -4 -10z"/>
<path d="M1630 4420 c0 -5 5 -10 10 -10 6 0 10 5 10 10 0 6 -4 10 -10 10 -5 0
-10 -4 -10 -10z"/>
<path d="M1775 4421 c-3 -5 -2 -12 3 -15 5 -3 9 1 9 9 0 17 -3 19 -12 6z"/>
<path d="M1555 4410 c-4 -6 -11 -8 -16 -5 -5 4 -9 1 -9 -4 0 -15 11 -13 34 4
11 8 15 15 9 15 -7 0 -15 -5 -18 -10z"/>
<path d="M1490 4400 c0 -5 5 -10 10 -10 6 0 10 5 10 10 0 6 -4 10 -10 10 -5 0
-10 -4 -10 -10z"/>
<path d="M1675 4399 c-3 -4 2 -6 10 -5 21 3 28 13 10 13 -9 0 -18 -4 -20 -8z"/>
<path d="M1753 4397 c0 -20 24 -30 33 -14 4 7 4 9 -1 5 -4 -4 -13 0 -20 8 -11
15 -12 15 -12 1z"/>
<path d="M1595 4391 c-6 -11 13 -26 22 -17 4 3 1 6 -6 6 -7 0 -9 5 -6 10 3 6
4 10 1 10 -3 0 -7 -4 -11 -9z"/>
<path d="M1710 4381 c0 -6 4 -13 10 -16 6 -3 7 1 4 9 -7 18 -14 21 -14 7z"/>
<path d="M1630 4376 c0 -2 7 -9 15 -16 9 -7 15 -8 15 -2 0 5 -7 12 -15 16 -8
3 -15 4 -15 2z"/>
<path d="M1685 4363 c-14 -33 -13 -43 4 -53 13 -6 18 -5 18 5 0 7 -6 11 -13 8
-13 -5 -14 14 0 35 4 7 6 15 3 18 -2 3 -8 -3 -12 -13z"/>
<path d="M1780 4360 c-9 -6 -10 -10 -3 -10 6 0 15 5 18 10 8 12 4 12 -15 0z"/>
<path d="M1497 4353 c-3 -5 8 -8 23 -8 15 0 26 3 23 8 -2 4 -13 7 -23 7 -10 0
-21 -3 -23 -7z"/>
<path d="M1598 4343 c7 -3 16 -2 19 1 4 3 -2 6 -13 5 -11 0 -14 -3 -6 -6z"/>
<path d="M1724 4339 c-3 -6 -1 -16 5 -22 9 -9 10 -7 5 7 -6 15 -4 17 6 11 9
-5 11 -4 6 3 -9 15 -13 15 -22 1z"/>
<path d="M1577 4329 c7 -7 15 -10 18 -7 3 3 -2 9 -12 12 -14 6 -15 5 -6 -5z"/>
<path d="M1623 4319 c9 -6 15 -14 12 -20 -4 -5 -1 -9 4 -9 6 0 11 4 11 8 0 12
-22 32 -34 32 -6 0 -3 -5 7 -11z"/>
<path d="M1759 4318 c-6 -21 -5 -37 2 -32 5 3 6 10 3 16 -5 8 -1 9 10 5 10 -4
15 -3 11 3 -5 9 -24 14 -26 8z"/>
<path d="M1550 4304 c0 -6 7 -17 15 -24 8 -7 15 -9 15 -5 0 5 9 0 20 -10 20
-18 21 -18 14 0 -6 14 -4 16 6 10 8 -5 11 -4 7 2 -4 6 -18 9 -32 8 -15 -2 -29
3 -35 13 -5 10 -10 12 -10 6z"/>
<path d="M1520 4280 c-9 -6 -10 -10 -3 -10 6 0 15 5 18 10 8 12 4 12 -15 0z"/>
<path d="M1707 4271 c-4 -17 -3 -21 5 -13 5 5 8 16 6 23 -3 8 -7 3 -11 -10z"/>
<path d="M1790 4279 c0 -5 5 -7 10 -4 6 3 10 8 10 11 0 2 -4 4 -10 4 -5 0 -10
-5 -10 -11z"/>
<path d="M1561 4244 c0 -11 3 -14 6 -6 3 7 2 16 -1 19 -3 4 -6 -2 -5 -13z"/>
<path d="M1661 4257 c2 -1 13 -9 24 -17 19 -14 19 -14 6 3 -7 9 -18 17 -24 17
-6 0 -8 -1 -6 -3z"/>
<path d="M1799 4233 c-13 -17 -13 -17 6 -3 11 8 22 16 24 17 2 2 0 3 -6 3 -6
0 -17 -8 -24 -17z"/>
<path d="M1717 4229 c7 -7 15 -10 18 -7 3 3 -2 9 -12 12 -14 6 -15 5 -6 -5z"/>
<path d="M1758 4223 c7 -3 16 -2 19 1 4 3 -2 6 -13 5 -11 0 -14 -3 -6 -6z"/>
<path d="M1815 4220 c-3 -5 -1 -10 4 -10 6 0 11 5 11 10 0 6 -2 10 -4 10 -3 0
-8 -4 -11 -10z"/>
<path d="M1537 4196 c-4 -10 1 -12 14 -9 23 6 24 9 5 16 -8 3 -17 0 -19 -7z"/>
<path d="M1670 4196 c0 -2 9 -6 20 -9 11 -3 18 -1 14 4 -5 9 -34 13 -34 5z"/>
<path d="M1588 4183 c7 -3 16 -2 19 1 4 3 -2 6 -13 5 -11 0 -14 -3 -6 -6z"/>
<path d="M1605 4170 c-16 -7 -17 -9 -3 -9 9 -1 20 4 23 9 7 11 7 11 -20 0z"/>
<path d="M1644 4159 c-4 -7 -3 -9 4 -5 5 3 13 0 15 -6 4 -9 6 -10 6 -1 1 17
-16 25 -25 12z"/>
<path d="M1748 4164 c6 -3 10 -9 7 -14 -3 -4 2 -10 10 -13 10 -4 12 -1 8 10
-5 12 -3 14 8 8 8 -4 11 -4 6 0 -4 5 -18 10 -30 11 -12 2 -16 0 -9 -2z"/>
<path d="M1550 4140 c0 -5 5 -10 10 -10 6 0 10 5 10 10 0 6 -4 10 -10 10 -5 0
-10 -4 -10 -10z"/>
<path d="M1690 4131 c0 -8 -7 -11 -17 -6 -15 5 -16 4 -5 -6 9 -10 15 -10 24
-1 6 6 9 15 5 19 -4 3 -7 1 -7 -6z"/>
<path d="M1600 4120 c-12 -7 -10 -9 8 -7 12 0 22 5 22 9 0 11 -12 10 -30 -2z"/>
<path d="M1740 4126 c0 -2 8 -10 18 -17 15 -13 16 -12 3 4 -13 16 -21 21 -21
13z"/>
<path d="M1727 4103 c-11 -11 -8 -31 6 -36 8 -3 14 1 14 9 0 7 -5 10 -10 7 -6
-4 -8 0 -4 10 7 18 5 21 -6 10z"/>
<path d="M1833 4090 c1 -21 10 -18 13 5 1 8 -2 15 -6 15 -5 0 -8 -9 -7 -20z"/>
<path d="M1641 4083 c7 -10 15 -20 16 -22 2 -2 3 3 3 11 0 9 -7 19 -16 22 -15
6 -15 4 -3 -11z"/>
<path d="M1596 4067 c3 -10 9 -15 12 -12 3 3 0 11 -7 18 -10 9 -11 8 -5 -6z"/>
<path d="M1776 4062 c-2 -4 -1 -14 3 -20 6 -10 11 -9 21 3 11 13 10 14 -5 9
-13 -5 -16 -4 -11 4 4 7 5 12 2 12 -3 0 -7 -4 -10 -8z"/>
<path d="M1850 4060 c0 -5 5 -10 11 -10 5 0 7 5 4 10 -3 6 -8 10 -11 10 -2 0
-4 -4 -4 -10z"/>
<path d="M1641 4036 c-9 -10 -8 -15 3 -19 9 -4 18 -1 22 5 5 7 2 8 -6 3 -10
-6 -12 -4 -7 8 8 21 3 22 -12 3z"/>
<path d="M1690 4040 c0 -5 5 -10 10 -10 6 0 10 5 10 10 0 6 -4 10 -10 10 -5 0
-10 -4 -10 -10z"/>
<path d="M1750 4041 c0 -6 4 -13 10 -16 6 -3 7 1 4 9 -7 18 -14 21 -14 7z"/>
<path d="M1830 4020 c8 -5 20 -10 25 -10 6 0 3 5 -5 10 -8 5 -19 10 -25 10 -5
0 -3 -5 5 -10z"/>
<path d="M1578 4008 c5 -5 16 -8 23 -6 8 3 3 7 -10 11 -17 4 -21 3 -13 -5z"/>
<path d="M1730 4010 c-9 -6 -10 -10 -3 -10 6 0 15 5 18 10 8 12 4 12 -15 0z"/>
<path d="M1666 4002 c-3 -5 1 -9 9 -9 8 0 12 4 9 9 -3 4 -7 8 -9 8 -2 0 -6 -4
-9 -8z"/>
<path d="M1775 3991 c-3 -5 0 -13 6 -17 8 -5 9 -3 4 6 -6 10 -4 12 9 7 10 -4
15 -3 11 3 -8 13 -22 13 -30 1z"/>
<path d="M1598 3983 c7 -3 16 -2 19 1 4 3 -2 6 -13 5 -11 0 -14 -3 -6 -6z"/>
<path d="M1735 3980 c6 -10 4 -12 -8 -7 -21 8 -22 3 -3 -12 10 -9 15 -8 19 3
4 9 1 18 -5 22 -7 5 -8 2 -3 -6z"/>
<path d="M1867 3969 c4 -13 8 -18 11 -10 2 7 -1 18 -6 23 -8 8 -9 4 -5 -13z"/>
<path d="M1666 3964 c-6 -15 -4 -15 11 -3 10 7 20 15 22 16 2 2 -3 3 -11 3 -9
0 -19 -7 -22 -16z"/>
<path d="M1565 3960 c-3 -6 1 -7 9 -4 18 7 21 14 7 14 -6 0 -13 -4 -16 -10z"/>
<path d="M1810 3958 c0 -4 4 -8 9 -8 6 0 12 4 15 8 3 5 -1 9 -9 9 -8 0 -15 -4
-15 -9z"/>
<path d="M1587 3929 c4 -13 8 -18 11 -10 2 7 -1 18 -6 23 -8 8 -9 4 -5 -13z"/>
<path d="M1634 3925 c1 -14 6 -28 11 -33 4 -4 4 -1 0 7 -6 11 -4 13 10 7 18
-6 18 -6 2 12 -9 10 -14 22 -10 25 3 4 1 7 -5 7 -6 0 -9 -11 -8 -25z"/>
<path d="M1841 3926 c-21 -12 -22 -14 -5 -20 10 -4 15 -4 11 0 -4 4 1 13 11
20 22 17 14 17 -17 0z"/>
<path d="M1790 3921 c0 -6 4 -13 10 -16 6 -3 7 1 4 9 -7 18 -14 21 -14 7z"/>
<path d="M1676 3895 c-9 -26 -7 -32 5 -12 6 10 9 21 6 23 -2 3 -7 -2 -11 -11z"/>
<path d="M1765 3890 c-16 -7 -17 -9 -3 -9 9 -1 20 4 23 9 7 11 7 11 -20 0z"/>
<path d="M1610 3880 c0 -5 5 -10 10 -10 6 0 10 5 10 10 0 6 -4 10 -10 10 -5 0
-10 -4 -10 -10z"/>
<path d="M1870 3878 c0 -4 7 -8 15 -8 8 0 15 4 15 8 0 5 -7 9 -15 9 -8 0 -15
-4 -15 -9z"/>
<path d="M1748 3852 c4 -11 1 -13 -8 -7 -9 5 -11 4 -6 -3 10 -16 14 -15 25 6
7 14 6 19 -4 19 -7 0 -11 -7 -7 -15z"/>
<path d="M1651 3851 c-8 -5 -9 -11 -3 -15 5 -3 12 1 16 9 6 17 6 18 -13 6z"/>
<path d="M1594 3836 c1 -8 5 -18 8 -22 4 -3 5 1 4 10 -1 8 -5 18 -8 22 -4 3
-5 -1 -4 -10z"/>
<path d="M1780 3840 c8 -5 20 -10 25 -10 6 0 3 5 -5 10 -8 5 -19 10 -25 10 -5
0 -3 -5 5 -10z"/>
<path d="M1714 3825 c1 -8 8 -21 16 -28 12 -10 12 -9 2 4 -6 9 -9 18 -6 21 3
3 1 9 -4 12 -6 3 -9 -1 -8 -9z"/>
<path d="M1841 3832 c-1 -7 -5 -10 -11 -7 -6 4 -7 -1 -3 -11 5 -13 3 -15 -7
-9 -9 6 -11 4 -5 -5 6 -10 11 -9 22 6 8 10 17 18 21 17 4 -1 9 1 12 4 3 4 0 3
-7 0 -6 -4 -14 -1 -16 5 -4 10 -6 10 -6 0z"/>
<path d="M1614 3798 c-5 -7 -3 -8 6 -3 10 6 12 4 7 -8 -4 -11 -2 -14 9 -10 11
4 12 9 3 19 -14 17 -16 17 -25 2z"/>
<path d="M1677 3793 c3 -7 6 -13 8 -13 2 0 5 6 8 13 3 8 -1 14 -8 14 -7 0 -11
-6 -8 -14z"/>
<path d="M1873 3794 c0 -7 6 -10 14 -7 7 3 13 8 13 12 0 4 -6 8 -13 8 -8 0
-14 -6 -14 -13z"/>
<path d="M1790 3780 c0 -5 5 -10 10 -10 6 0 10 5 10 10 0 6 -4 10 -10 10 -5 0
-10 -4 -10 -10z"/>
<path d="M1676 3759 c2 -4 -2 -10 -8 -12 -8 -4 -9 -6 -2 -6 6 -1 17 5 23 12 8
10 7 14 -4 14 -8 0 -12 -4 -9 -8z"/>
<path d="M1866 3757 c3 -10 9 -15 12 -12 3 3 0 11 -7 18 -10 9 -11 8 -5 -6z"/>
<path d="M1707 3729 c4 -13 8 -18 11 -10 2 7 -1 18 -6 23 -8 8 -9 4 -5 -13z"/>
<path d="M1913 3743 c4 -3 1 -13 -6 -22 -11 -14 -10 -14 5 -2 16 12 16 31 1
31 -4 0 -3 -3 0 -7z"/>
<path d="M1774 3718 c-5 -7 -3 -8 6 -3 10 6 12 4 7 -8 -4 -11 -2 -14 9 -10 11
4 12 9 3 19 -14 17 -16 17 -25 2z"/>
<path d="M1832 3724 c3 -3 12 -6 20 -8 7 -1 20 -5 28 -10 12 -7 13 -6 3 4 -7
8 -23 15 -35 17 -12 2 -19 1 -16 -3z"/>
<path d="M1630 3700 c0 -5 5 -10 10 -10 6 0 10 5 10 10 0 6 -4 10 -10 10 -5 0
-10 -4 -10 -10z"/>
<path d="M1685 3687 c-14 -11 -15 -16 -5 -22 9 -6 11 -4 5 5 -6 9 -4 12 7 8 9
-4 15 0 15 8 0 17 1 17 -22 1z"/>
<path d="M1835 3690 c-4 -6 -11 -8 -16 -5 -5 4 -9 1 -9 -5 0 -7 7 -9 16 -6 11
4 15 2 11 -7 -3 -8 1 -14 8 -14 10 0 11 5 5 17 -5 10 -6 20 -3 24 3 3 4 6 0 6
-3 0 -9 -5 -12 -10z"/>
<path d="M1901 3684 c0 -11 3 -14 6 -6 3 7 2 16 -1 19 -3 4 -6 -2 -5 -13z"/>
<path d="M1724 3679 c-3 -6 -2 -15 4 -21 6 -6 12 -6 17 3 6 8 4 10 -5 4 -10
-6 -12 -4 -7 8 7 19 2 23 -9 6z"/>
<path d="M1646 3651 c-17 -6 -17 -8 -4 -14 10 -3 19 0 22 9 3 8 4 14 3 13 -1
0 -11 -4 -21 -8z"/>
<path d="M1686 3637 c3 -10 9 -15 12 -12 3 3 0 11 -7 18 -10 9 -11 8 -5 -6z"/>
<path d="M1715 3629 c-4 -6 -5 -12 -2 -15 2 -3 7 2 10 11 7 17 1 20 -8 4z"/>
<path d="M1816 3631 c-4 -5 3 -7 14 -4 23 6 26 13 6 13 -8 0 -17 -4 -20 -9z"/>
<path d="M1775 3620 c6 -10 4 -12 -11 -6 -15 6 -17 5 -6 -5 9 -9 15 -10 23 -2
8 8 7 13 -2 18 -8 6 -10 4 -4 -5z"/>
<path d="M1910 3620 c0 -5 5 -10 10 -10 6 0 10 5 10 10 0 6 -4 10 -10 10 -5 0
-10 -4 -10 -10z"/>
<path d="M1665 3599 c-3 -4 2 -6 10 -5 21 3 28 13 10 13 -9 0 -18 -4 -20 -8z"/>
<path d="M1799 3608 c-7 -24 -4 -40 9 -50 15 -11 15 -11 6 2 -6 8 -10 23 -9
33 3 13 -2 26 -6 15z"/>
<path d="M1843 3597 c-3 -5 0 -14 6 -20 9 -9 10 -7 5 7 -5 13 -4 17 4 12 6 -3
13 -3 16 2 3 5 -2 9 -10 9 -8 0 -17 -4 -21 -10z"/>
<path d="M1660 3571 c0 -6 4 -13 10 -16 6 -3 7 1 4 9 -7 18 -14 21 -14 7z"/>
<path d="M1757 3569 c7 -7 15 -10 18 -7 3 3 -2 9 -12 12 -14 6 -15 5 -6 -5z"/>
<path d="M1697 3556 c-4 -10 1 -12 14 -9 23 6 24 9 5 16 -8 3 -17 0 -19 -7z"/>
<path d="M1748 3543 c7 -3 16 -2 19 1 4 3 -2 6 -13 5 -11 0 -14 -3 -6 -6z"/>
<path d="M1865 3520 c0 -15 3 -26 8 -23 4 2 7 13 7 23 0 10 -3 21 -7 23 -5 3
-8 -8 -8 -23z"/>
<path d="M1910 3543 c0 -6 8 -17 18 -24 16 -13 16 -13 2 6 -8 11 -16 22 -17
24 -2 2 -3 0 -3 -6z"/>
<path d="M1673 3525 c0 -8 4 -12 9 -9 5 3 6 10 3 15 -9 13 -12 11 -12 -6z"/>
<path d="M1795 3530 c-8 -13 3 -30 18 -30 8 0 7 3 -2 9 -7 5 -10 14 -7 20 4 6
5 11 2 11 -3 0 -8 -4 -11 -10z"/>
<path d="M1650 3516 c0 -8 4 -17 9 -20 5 -4 7 3 4 14 -6 23 -13 26 -13 6z"/>
<path d="M1710 3500 c0 -5 5 -10 10 -10 6 0 10 5 10 10 0 6 -4 10 -10 10 -5 0
-10 -4 -10 -10z"/>
<path d="M1950 3499 c0 -5 5 -7 10 -4 6 3 10 8 10 11 0 2 -4 4 -10 4 -5 0 -10
-5 -10 -11z"/>
<path d="M1926 3483 c-6 -14 -5 -15 5 -6 7 7 10 15 7 18 -3 3 -9 -2 -12 -12z"/>
<path d="M1680 3480 c-8 -5 -10 -10 -5 -10 6 0 3 -5 -5 -10 -12 -7 -10 -9 7
-8 14 2 19 7 15 17 -4 10 -1 12 8 6 9 -5 11 -4 6 3 -9 14 -7 14 -26 2z"/>
<path d="M1805 3480 c-3 -6 1 -7 9 -4 18 7 21 14 7 14 -6 0 -13 -4 -16 -10z"/>
<path d="M1763 3473 c9 -2 14 -9 11 -15 -4 -7 -2 -8 5 -4 15 10 4 26 -17 25
-15 -1 -15 -2 1 -6z"/>
<path d="M1844 3455 c-4 -8 -10 -13 -14 -10 -4 3 -11 -2 -14 -10 -4 -13 -2
-14 14 -5 11 6 20 15 20 21 0 6 5 7 12 3 7 -4 8 -3 4 4 -10 16 -15 15 -22 -3z"/>
<path d="M1967 3463 c-10 -10 -8 -41 2 -48 5 -3 13 0 17 6 5 8 3 9 -6 4 -10
-6 -12 -1 -8 19 6 28 5 30 -5 19z"/>
<path d="M1789 3443 c-13 -16 -12 -17 4 -4 9 7 17 15 17 17 0 8 -8 3 -21 -13z"/>
<path d="M1714 3441 c4 -5 1 -12 -4 -14 -6 -3 -5 -4 2 -3 15 3 23 26 8 26 -6
0 -9 -4 -6 -9z"/>
<path d="M1901 3434 c0 -11 3 -14 6 -6 3 7 2 16 -1 19 -3 4 -6 -2 -5 -13z"/>
<path d="M1755 3420 c-3 -5 -3 -10 1 -10 4 0 0 -6 -11 -13 -14 -11 -15 -16 -5
-22 8 -5 11 -4 6 3 -3 5 -1 12 6 14 6 2 12 12 14 21 3 19 -2 22 -11 7z"/>
<path d="M1690 3406 c0 -2 7 -7 16 -10 8 -3 12 -2 9 4 -6 10 -25 14 -25 6z"/>
<path d="M1797 3396 c-3 -8 0 -17 7 -19 10 -4 12 1 9 14 -6 23 -9 24 -16 5z"/>
<path d="M1846 3402 c-3 -5 1 -9 9 -9 8 0 15 4 15 9 0 4 -4 8 -9 8 -6 0 -12
-4 -15 -8z"/>
<path d="M1906 3399 c3 -5 9 -7 14 -4 4 3 11 0 13 -5 3 -6 4 -5 3 1 -1 7 -10
13 -19 15 -9 1 -15 -2 -11 -7z"/>
<path d="M1875 3381 c-9 -15 15 -25 28 -12 9 9 7 10 -7 5 -13 -5 -17 -4 -12 4
4 7 5 12 2 12 -3 0 -7 -4 -11 -9z"/>
<path d="M1716 3367 c3 -10 9 -15 12 -12 3 3 0 11 -7 18 -10 9 -11 8 -5 -6z"/>
<path d="M1780 3360 c8 -5 20 -10 25 -10 6 0 3 5 -5 10 -8 5 -19 10 -25 10 -5
0 -3 -5 5 -10z"/>
<path d="M1990 3351 c0 -7 -5 -9 -12 -5 -7 5 -8 3 -3 -5 5 -9 10 -10 18 -2 6
6 8 14 4 18 -4 3 -7 1 -7 -6z"/>
<path d="M1755 3341 c-3 -5 0 -13 6 -17 7 -4 9 -3 5 4 -3 5 0 13 6 15 9 4 10
6 1 6 -6 1 -14 -3 -18 -8z"/>
<path d="M1827 3332 c5 -11 3 -13 -7 -7 -9 5 -11 4 -6 -4 6 -9 12 -9 24 1 10
7 18 13 20 14 1 1 -6 4 -17 7 -15 3 -18 1 -14 -11z"/>
<path d="M1697 3316 c-4 -10 1 -12 14 -9 23 6 24 9 5 16 -8 3 -17 0 -19 -7z"/>
<path d="M1880 3315 c-11 -13 -10 -14 4 -9 9 3 16 10 16 15 0 13 -6 11 -20 -6z"/>
<path d="M1790 3301 c0 -6 4 -12 8 -15 5 -3 9 1 9 9 0 8 -4 15 -9 15 -4 0 -8
-4 -8 -9z"/>
<path d="M1912 3285 c-1 -14 2 -25 6 -25 4 0 8 11 8 25 2 33 -11 33 -14 0z"/>
<path d="M1965 3299 c-4 -6 -5 -12 -2 -15 2 -3 7 2 10 11 7 17 1 20 -8 4z"/>
<path d="M1835 3279 c-3 -4 2 -6 10 -5 21 3 28 13 10 13 -9 0 -18 -4 -20 -8z"/>
<path d="M1815 3260 c6 -10 4 -12 -8 -7 -21 8 -22 3 -3 -12 10 -9 15 -8 19 3
4 9 1 18 -5 22 -7 5 -8 2 -3 -6z"/>
<path d="M1845 3243 c-5 -10 -9 -20 -9 -23 -1 -3 -5 -12 -10 -20 -5 -8 -6 -12
-1 -8 4 4 15 3 25 -2 12 -6 17 -5 17 5 0 7 -6 11 -13 8 -13 -5 -14 14 0 35 4
7 6 15 3 18 -2 3 -8 -3 -12 -13z"/>
<path d="M1980 3251 c0 -6 4 -13 10 -16 6 -3 7 1 4 9 -7 18 -14 21 -14 7z"/>
<path d="M1910 3236 c7 -7 13 -7 20 0 6 6 3 10 -10 10 -13 0 -16 -4 -10 -10z"/>
<path d="M3616 3242 c-3 -4 4 -9 15 -9 23 -2 25 3 4 10 -8 4 -16 3 -19 -1z"/>
<path d="M1747 3226 c-4 -10 -1 -13 8 -9 8 3 12 9 9 14 -7 12 -11 11 -17 -5z"/>
<path d="M3587 3227 c-3 -8 1 -14 8 -14 7 0 11 6 8 14 -3 7 -6 13 -8 13 -2 0
-5 -6 -8 -13z"/>
<path d="M1884 3219 c-3 -6 -2 -15 4 -21 6 -6 12 -6 17 3 6 8 4 10 -5 4 -10
-6 -12 -4 -7 8 7 19 2 23 -9 6z"/>
<path d="M1946 3216 c6 -15 4 -17 -6 -11 -9 6 -11 4 -5 -4 5 -9 10 -10 18 -2
8 8 7 14 -2 24 -10 10 -11 8 -5 -7z"/>
<path d="M2010 3206 c0 -8 4 -17 9 -20 5 -4 7 3 4 14 -6 23 -13 26 -13 6z"/>
<path d="M1715 3200 c3 -5 8 -10 11 -10 2 0 4 5 4 10 0 6 -5 10 -11 10 -5 0
-7 -4 -4 -10z"/>
<path d="M1783 3199 c9 -6 15 -14 12 -20 -4 -5 -1 -9 4 -9 6 0 11 4 11 8 0 12
-22 32 -34 32 -6 0 -3 -5 7 -11z"/>
<path d="M1973 3195 c0 -7 6 -11 14 -8 7 3 13 6 13 8 0 2 -6 5 -13 8 -8 3 -14
-1 -14 -8z"/>
<path d="M3480 3195 c-19 -22 -8 -25 13 -3 9 10 13 18 8 18 -5 0 -14 -7 -21
-15z"/>
<path d="M3560 3200 c8 -5 20 -10 25 -10 6 0 3 5 -5 10 -8 5 -19 10 -25 10 -5
0 -3 -5 5 -10z"/>
<path d="M3755 3181 c-3 -5 -2 -12 3 -15 5 -3 9 1 9 9 0 17 -3 19 -12 6z"/>
<path d="M3497 3169 c7 -7 15 -10 18 -7 3 3 -2 9 -12 12 -14 6 -15 5 -6 -5z"/>
<path d="M3660 3171 c0 -6 4 -13 10 -16 6 -3 7 1 4 9 -7 18 -14 21 -14 7z"/>
<path d="M1752 3159 c-19 -7 -23 -29 -6 -29 3 0 2 5 -2 12 -5 7 -2 9 9 5 9 -3
18 0 21 9 3 8 4 14 3 13 -1 0 -12 -4 -25 -10z"/>
<path d="M2027 3151 c-4 -17 -3 -21 5 -13 5 5 8 16 6 23 -3 8 -7 3 -11 -10z"/>
<path d="M3600 3160 c-9 -6 -10 -10 -3 -10 6 0 15 5 18 10 8 12 4 12 -15 0z"/>
<path d="M3697 3156 c-4 -10 1 -12 14 -9 23 6 24 9 5 16 -8 3 -17 0 -19 -7z"/>
<path d="M3626 3137 c3 -10 9 -15 12 -12 3 3 0 11 -7 18 -10 9 -11 8 -5 -6z"/>
<path d="M1795 3130 c-4 -6 -10 -8 -15 -5 -4 3 -14 -3 -21 -13 -12 -15 -12
-16 2 -5 9 7 18 11 21 8 3 -3 11 1 18 10 7 8 10 15 7 15 -3 0 -9 -5 -12 -10z"/>
<path d="M1828 3133 c6 -2 9 -10 6 -15 -4 -7 -2 -8 5 -4 13 9 5 26 -12 25 -9
0 -8 -2 1 -6z"/>
<path d="M3532 3131 c-11 -7 -11 -9 0 -14 9 -3 15 1 15 9 0 8 -1 14 -1 14 -1
0 -7 -4 -14 -9z"/>
<path d="M3672 3135 c4 -4 3 -16 -3 -26 -5 -11 -7 -19 -5 -19 3 0 10 9 16 19
7 15 7 22 -2 27 -7 4 -10 4 -6 -1z"/>
<path d="M3807 3127 c-3 -8 1 -14 8 -14 7 0 11 6 8 14 -3 7 -6 13 -8 13 -2 0
-5 -6 -8 -13z"/>
<path d="M1880 3120 c-8 -5 -10 -10 -5 -10 6 0 17 5 25 10 8 5 11 10 5 10 -5
0 -17 -5 -25 -10z"/>
<path d="M1930 3120 c0 -5 5 -10 10 -10 6 0 10 5 10 10 0 6 -4 10 -10 10 -5 0
-10 -4 -10 -10z"/>
<path d="M1992 3118 c2 -6 10 -13 16 -14 7 -1 8 0 2 3 -5 2 -8 9 -4 14 3 5 0
9 -6 9 -7 0 -10 -5 -8 -12z"/>
<path d="M3600 3120 c-9 -6 -10 -10 -3 -10 6 0 15 5 18 10 8 12 4 12 -15 0z"/>
<path d="M3723 3118 c-3 -6 -1 -8 5 -4 5 3 13 0 15 -6 4 -10 6 -10 6 0 1 8 6
10 14 6 6 -4 8 -3 4 1 -12 13 -36 15 -44 3z"/>
<path d="M1802 3101 c-10 -6 -10 -10 3 -21 13 -11 14 -10 9 5 -6 14 -4 16 6
10 9 -5 11 -4 6 3 -8 14 -7 14 -24 3z"/>
<path d="M1844 3099 c-3 -6 -2 -15 4 -21 6 -6 12 -6 17 3 6 8 4 10 -5 4 -10
-6 -12 -4 -7 8 7 19 2 23 -9 6z"/>
<path d="M1910 3090 c6 -11 13 -20 16 -20 2 0 0 9 -6 20 -6 11 -13 20 -16 20
-2 0 0 -9 6 -20z"/>
<path d="M3617 3084 c2 -7 11 -10 19 -7 19 7 18 10 -5 16 -13 3 -18 1 -14 -9z"/>
<path d="M3679 3073 c-12 -16 -12 -17 2 -6 9 7 19 10 22 6 4 -3 7 -1 7 5 0 17
-16 15 -31 -5z"/>
<path d="M3777 3076 c-4 -10 1 -12 14 -9 23 6 24 9 5 16 -8 3 -17 0 -19 -7z"/>
<path d="M3830 3070 c-11 -7 -11 -10 -2 -10 7 0 11 -4 7 -9 -3 -5 0 -13 6 -17
7 -4 9 -3 5 4 -3 5 0 13 6 15 10 4 10 6 0 6 -7 1 -10 6 -7 11 8 12 4 12 -15 0z"/>
<path d="M1870 3060 c0 -5 5 -10 10 -10 6 0 10 5 10 10 0 6 -4 10 -10 10 -5 0
-10 -4 -10 -10z"/>
<path d="M2030 3060 c0 -5 5 -10 10 -10 6 0 10 5 10 10 0 6 -4 10 -10 10 -5 0
-10 -4 -10 -10z"/>
<path d="M3592 3050 c-7 -11 -8 -20 -3 -20 9 0 24 30 18 36 -1 2 -8 -6 -15
-16z"/>
<path d="M3716 3062 c-2 -4 2 -15 9 -25 12 -17 13 -16 18 2 3 15 1 18 -11 14
-10 -4 -13 -2 -8 5 4 7 5 12 2 12 -3 0 -7 -3 -10 -8z"/>
<path d="M1803 3040 c-11 -16 -10 -18 4 -13 12 5 14 3 8 -7 -5 -8 -4 -11 3 -7
5 4 8 16 5 27 -6 24 -5 24 -20 0z"/>
<path d="M1973 3045 c0 -7 6 -11 14 -8 7 3 13 6 13 8 0 2 -6 5 -13 8 -8 3 -14
-1 -14 -8z"/>
<path d="M1935 3039 c-6 -8 -4 -10 5 -4 10 6 12 4 6 -11 -6 -15 -5 -17 5 -6 9
9 10 15 2 23 -8 8 -13 7 -18 -2z"/>
<path d="M3636 3035 c-9 -26 -7 -32 5 -12 6 10 9 21 6 23 -2 3 -7 -2 -11 -11z"/>
<path d="M3793 3025 c0 -8 4 -15 9 -15 4 0 8 4 8 9 0 6 -4 12 -8 15 -5 3 -9
-1 -9 -9z"/>
<path d="M1876 3018 c5 -7 2 -9 -9 -5 -11 4 -14 2 -10 -9 4 -11 9 -12 19 -3
12 10 11 29 -2 29 -3 0 -2 -5 2 -12z"/>
<path d="M3655 3021 c-7 -12 12 -24 25 -16 6 3 10 12 9 18 0 9 -2 9 -6 0 -2
-7 -9 -13 -14 -13 -6 0 -7 5 -4 10 3 6 4 10 1 10 -3 0 -7 -4 -11 -9z"/>
<path d="M3881 3021 c-8 -5 -9 -11 -3 -15 5 -3 12 1 16 9 6 17 6 18 -13 6z"/>
<path d="M1753 3007 c0 -7 9 -14 19 -14 10 -1 18 3 18 9 0 6 -3 8 -7 5 -3 -4
-11 -2 -18 3 -8 7 -12 6 -12 -3z"/>
<path d="M1901 3017 c2 -1 13 -9 24 -17 19 -14 19 -14 6 3 -7 9 -18 17 -24 17
-6 0 -8 -1 -6 -3z"/>
<path d="M1985 2999 c-4 -6 -5 -12 -2 -15 2 -3 7 2 10 11 7 17 1 20 -8 4z"/>
<path d="M3720 2995 c-7 -9 -8 -15 -2 -15 5 0 12 7 16 15 3 8 4 15 2 15 -2 0
-9 -7 -16 -15z"/>
<path d="M3764 2999 c-3 -6 -1 -16 5 -22 9 -9 10 -7 5 7 -6 15 -4 17 6 11 9
-5 11 -4 6 3 -9 15 -13 15 -22 1z"/>
<path d="M3834 2992 c3 -5 0 -13 -6 -15 -8 -3 -6 -6 5 -6 19 -1 23 14 5 25 -6
4 -8 3 -4 -4z"/>
<path d="M3896 2991 c-4 -5 3 -7 14 -4 23 6 26 13 6 13 -8 0 -17 -4 -20 -9z"/>
<path d="M2040 2968 c-10 -21 -10 -21 3 -6 8 10 18 14 22 10 5 -4 5 -1 1 6
-10 17 -14 15 -26 -10z"/>
<path d="M1821 2972 c-1 -7 -6 -10 -13 -6 -7 4 -8 3 -4 -5 4 -6 12 -8 18 -5 8
5 9 1 5 -12 -7 -18 -6 -18 6 -2 8 10 18 14 22 10 5 -4 5 -1 1 6 -4 7 -11 10
-16 7 -4 -3 -11 1 -13 7 -4 10 -6 10 -6 0z"/>
<path d="M3628 2973 c6 -2 9 -10 6 -15 -4 -7 -2 -8 5 -4 13 9 5 26 -12 25 -9
0 -8 -2 1 -6z"/>
<path d="M1880 2955 c-7 -8 -9 -15 -5 -15 4 0 1 -8 -6 -17 -13 -16 -12 -17 3
-4 10 7 15 17 13 22 -3 4 3 12 12 18 10 6 13 11 7 11 -6 0 -17 -7 -24 -15z"/>
<path d="M3666 2961 c8 -9 44 -11 44 -3 0 4 -11 8 -25 8 -13 0 -22 -2 -19 -5z"/>
<path d="M3750 2961 c0 -10 19 -25 25 -20 1 2 -3 10 -11 17 -8 7 -14 8 -14 3z"/>
<path d="M3793 2955 c0 -8 4 -12 9 -9 4 3 8 9 8 15 0 5 -4 9 -8 9 -5 0 -9 -7
-9 -15z"/>
<path d="M3877 2956 c-4 -11 -1 -13 10 -9 12 5 14 3 8 -7 -5 -9 -4 -11 4 -6 9
6 9 11 0 22 -14 17 -16 17 -22 0z"/>
<path d="M3933 2955 c0 -8 4 -12 9 -9 5 3 6 10 3 15 -9 13 -12 11 -12 -6z"/>
<path d="M1995 2940 c6 -10 4 -12 -11 -6 -15 6 -17 5 -6 -5 9 -9 15 -10 23 -2
8 8 7 13 -2 18 -8 6 -10 4 -4 -5z"/>
<path d="M3723 2935 c-3 -9 -3 -18 -1 -21 3 -3 8 4 11 16 6 23 -1 27 -10 5z"/>
<path d="M3814 2939 c-5 -8 -3 -10 6 -4 9 6 12 4 8 -6 -4 -9 2 -14 18 -15 13
-1 24 3 24 9 0 6 -3 7 -7 4 -3 -4 -14 0 -24 9 -13 12 -19 12 -25 3z"/>
<path d="M1910 2910 c6 -11 13 -20 16 -20 2 0 0 9 -6 20 -6 11 -13 20 -16 20
-2 0 0 -9 6 -20z"/>
<path d="M3906 2922 c-2 -4 4 -8 14 -8 10 0 16 4 14 8 -3 4 -9 8 -14 8 -5 0
-11 -4 -14 -8z"/>
<path d="M3671 2907 c-8 -10 -7 -14 2 -14 8 0 14 6 14 14 0 7 -1 13 -2 13 -2
0 -8 -6 -14 -13z"/>
<path d="M1997 2894 c5 -13 -21 -14 -33 -1 -4 4 -12 7 -18 7 -12 -1 13 -17 29
-20 6 -1 17 -7 25 -13 8 -6 12 -8 8 -3 -4 5 -3 16 2 26 6 12 5 17 -5 17 -7 0
-11 -6 -8 -13z"/>
<path d="M3790 2902 c0 -12 22 -32 35 -32 5 0 2 5 -8 11 -9 6 -15 14 -12 20 4
5 1 9 -4 9 -6 0 -11 -4 -11 -8z"/>
<path d="M1874 2883 c2 -9 8 -18 15 -19 6 -1 7 0 1 3 -5 2 -8 9 -5 13 3 5 1
11 -4 14 -5 4 -8 -2 -7 -11z"/>
<path d="M3733 2885 c0 -7 6 -11 13 -8 13 5 14 -21 1 -33 -4 -4 -7 -12 -7 -18
1 -13 23 23 26 42 1 7 -6 16 -15 22 -13 6 -18 5 -18 -5z"/>
<path d="M3900 2891 c0 -7 -5 -9 -12 -5 -7 5 -8 3 -3 -5 5 -9 10 -10 18 -2 6
6 8 14 4 18 -4 3 -7 1 -7 -6z"/>
<path d="M3976 2887 c3 -10 9 -15 12 -12 3 3 0 11 -7 18 -10 9 -11 8 -5 -6z"/>
<path d="M1800 2876 c0 -8 4 -17 9 -20 5 -4 7 3 4 14 -6 23 -13 26 -13 6z"/>
<path d="M2065 2879 c-4 -6 -5 -12 -2 -15 2 -3 7 2 10 11 7 17 1 20 -8 4z"/>
<path d="M3706 2876 c6 -15 4 -17 -6 -11 -9 6 -11 4 -5 -4 5 -9 10 -10 18 -2
8 8 7 14 -2 24 -10 10 -11 8 -5 -7z"/>
<path d="M3950 2881 c0 -6 4 -13 10 -16 6 -3 7 1 4 9 -7 18 -14 21 -14 7z"/>
<path d="M3840 2876 c0 -2 7 -7 16 -10 8 -3 12 -2 9 4 -6 10 -25 14 -25 6z"/>
<path d="M1947 2853 c5 -12 3 -14 -7 -8 -9 5 -11 4 -6 -4 6 -9 11 -9 22 0 17
14 17 16 0 22 -11 4 -13 1 -9 -10z"/>
<path d="M1839 2858 c-6 -22 -5 -39 3 -45 7 -4 8 -1 3 7 -6 10 -3 12 11 7 18
-7 18 -6 2 6 -10 8 -15 17 -11 20 3 4 3 7 0 7 -4 0 -7 -1 -8 -2z"/>
<path d="M2035 2850 c-4 -6 -10 -8 -14 -6 -4 3 -13 0 -21 -5 -11 -7 -10 -8 8
-6 20 3 56 27 40 27 -4 0 -10 -5 -13 -10z"/>
<path d="M3670 2856 c0 -2 8 -10 18 -17 15 -13 16 -12 3 4 -13 16 -21 21 -21
13z"/>
<path d="M3828 2853 c7 -3 16 -2 19 1 4 3 -2 6 -13 5 -11 0 -14 -3 -6 -6z"/>
<path d="M3925 2850 c-16 -7 -17 -9 -3 -9 9 -1 20 4 23 9 7 11 7 11 -20 0z"/>
<path d="M2070 2835 c5 -7 8 -14 5 -17 -3 -3 3 -11 12 -19 16 -12 17 -12 7 1
-6 8 -10 22 -9 31 2 9 -3 16 -11 16 -9 0 -11 -4 -4 -12z"/>
<path d="M3780 2841 c0 -5 7 -12 16 -15 14 -5 15 -4 4 9 -14 17 -20 19 -20 6z"/>
<path d="M3867 2831 c-4 -17 -3 -21 5 -13 5 5 8 16 6 23 -3 8 -7 3 -11 -10z"/>
<path d="M3967 2839 c7 -7 15 -10 18 -7 3 3 -2 9 -12 12 -14 6 -15 5 -6 -5z"/>
<path d="M1797 2829 c7 -7 15 -10 18 -7 3 3 -2 9 -12 12 -14 6 -15 5 -6 -5z"/>
<path d="M3716 2827 c3 -10 9 -15 12 -12 3 3 0 11 -7 18 -10 9 -11 8 -5 -6z"/>
<path d="M2036 2807 c3 -8 11 -14 19 -14 20 0 19 4 -5 17 -15 8 -18 8 -14 -3z"/>
<path d="M3954 2809 c-3 -6 -1 -16 6 -22 10 -9 11 -9 5 2 -4 8 -2 17 6 22 9 6
10 9 2 9 -6 0 -15 -5 -19 -11z"/>
<path d="M1907 2793 c3 -7 6 -13 8 -13 2 0 5 6 8 13 3 8 -1 14 -8 14 -7 0 -11
-6 -8 -14z"/>
<path d="M1966 2801 c-3 -5 1 -11 9 -14 9 -4 12 -1 8 9 -6 16 -10 17 -17 5z"/>
<path d="M3735 2799 c-3 -4 2 -6 10 -5 21 3 28 13 10 13 -9 0 -18 -4 -20 -8z"/>
<path d="M3835 2800 c3 -5 8 -10 11 -10 2 0 4 5 4 10 0 6 -5 10 -11 10 -5 0
-7 -4 -4 -10z"/>
<path d="M3890 2802 c0 -5 7 -9 15 -9 8 0 12 4 9 9 -3 4 -9 8 -15 8 -5 0 -9
-4 -9 -8z"/>
<path d="M1796 2781 c-3 -5 0 -14 8 -20 10 -9 15 -8 19 3 4 11 1 13 -10 9 -11
-4 -14 -2 -9 5 4 7 5 12 2 12 -3 0 -7 -4 -10 -9z"/>
<path d="M1996 2775 c-9 -26 -7 -32 5 -12 6 10 9 21 6 23 -2 3 -7 -2 -11 -11z"/>
<path d="M3790 2780 c0 -5 5 -10 10 -10 6 0 10 5 10 10 0 6 -4 10 -10 10 -5 0
-10 -4 -10 -10z"/>
<path d="M3867 2773 c5 -12 3 -14 -7 -8 -9 5 -11 4 -6 -4 6 -9 11 -9 22 0 17
14 17 16 0 22 -11 4 -13 1 -9 -10z"/>
<path d="M3988 2783 c6 -3 9 -10 5 -16 -4 -7 2 -5 13 3 10 8 20 15 22 16 2 1
-10 1 -25 1 -15 0 -22 -2 -15 -4z"/>
<path d="M1845 2763 c-5 -10 -9 -20 -9 -23 -1 -3 -5 -12 -10 -20 -5 -8 -6 -12
-1 -8 4 4 15 3 25 -2 12 -6 17 -5 17 5 0 7 -6 11 -13 8 -13 -5 -14 14 0 35 4
7 6 15 3 18 -2 3 -8 -3 -12 -13z"/>
<path d="M2076 2767 c3 -10 9 -15 12 -12 3 3 0 11 -7 18 -10 9 -11 8 -5 -6z"/>
<path d="M3920 2771 c0 -6 4 -13 10 -16 6 -3 7 1 4 9 -7 18 -14 21 -14 7z"/>
<path d="M1930 2760 c0 -5 5 -10 10 -10 6 0 10 5 10 10 0 6 -4 10 -10 10 -5 0
-10 -4 -10 -10z"/>
<path d="M3814 2758 c-5 -7 -3 -8 6 -3 10 6 12 4 7 -8 -4 -11 -2 -14 9 -10 11
4 12 9 3 19 -14 17 -16 17 -25 2z"/>
<path d="M3963 2758 c-11 -19 -13 -39 -1 -32 5 3 7 9 4 12 -3 3 -1 11 5 19 6
7 9 13 6 13 -3 0 -9 -6 -14 -12z"/>
<path d="M2016 2751 c-4 -5 3 -7 14 -4 23 6 26 13 6 13 -8 0 -17 -4 -20 -9z"/>
<path d="M3752 2751 c-11 -6 -10 -10 4 -15 9 -3 19 -4 22 -1 3 3 0 5 -7 5 -7
0 -9 5 -6 10 7 12 4 12 -13 1z"/>
<path d="M1884 2739 c-3 -6 -2 -15 4 -21 6 -6 12 -6 17 3 6 8 4 10 -5 4 -10
-6 -12 -4 -7 8 7 19 2 23 -9 6z"/>
<path d="M1956 2742 c-2 -4 2 -15 9 -25 12 -17 13 -16 18 2 3 15 1 18 -11 14
-10 -4 -13 -2 -8 5 4 7 5 12 2 12 -3 0 -7 -3 -10 -8z"/>
<path d="M2066 2736 c6 -15 4 -17 -6 -11 -9 6 -11 4 -5 -4 5 -9 10 -10 18 -2
8 8 7 14 -2 24 -10 10 -11 8 -5 -7z"/>
<path d="M4028 2733 c7 -3 16 -2 19 1 4 3 -2 6 -13 5 -11 0 -14 -3 -6 -6z"/>
<path d="M3785 2720 c-3 -6 1 -7 9 -4 18 7 21 14 7 14 -6 0 -13 -4 -16 -10z"/>
<path d="M3886 2721 c-3 -5 1 -11 9 -14 9 -4 12 -1 8 9 -6 16 -10 17 -17 5z"/>
<path d="M3973 2718 c-4 -7 -1 -8 7 -3 9 6 12 4 8 -7 -4 -8 -1 -15 7 -15 8 0
11 7 7 15 -4 11 -1 13 9 7 8 -5 11 -4 6 0 -12 13 -36 15 -44 3z"/>
<path d="M1919 2718 c-5 -18 -6 -38 -1 -34 7 8 12 36 6 36 -2 0 -4 -1 -5 -2z"/>
<path d="M2033 2705 c0 -8 4 -15 9 -15 4 0 8 4 8 9 0 6 -4 12 -8 15 -5 3 -9
-1 -9 -9z"/>
<path d="M4037 2709 c7 -7 15 -10 18 -7 3 3 -2 9 -12 12 -14 6 -15 5 -6 -5z"/>
<path d="M3802 2701 c-10 -6 -10 -10 3 -21 13 -11 14 -10 9 5 -6 14 -4 16 6
10 9 -5 11 -4 6 3 -8 14 -7 14 -24 3z"/>
<path d="M1947 2673 c5 -12 3 -14 -7 -8 -8 5 -11 4 -6 -3 4 -6 13 -9 22 -5 11
4 12 9 3 19 -15 19 -20 18 -12 -3z"/>
<path d="M2004 2679 c-3 -6 -2 -15 4 -21 6 -6 12 -6 17 3 6 8 4 10 -5 4 -10
-6 -12 -4 -7 8 7 19 2 23 -9 6z"/>
<path d="M3850 2680 c0 -5 5 -10 10 -10 6 0 10 5 10 10 0 6 -4 10 -10 10 -5 0
-10 -4 -10 -10z"/>
<path d="M3910 2685 c0 -5 5 -17 10 -25 5 -8 10 -10 10 -5 0 6 -5 17 -10 25
-5 8 -10 11 -10 5z"/>
<path d="M3990 2676 c0 -2 9 -6 20 -9 11 -3 18 -1 14 4 -5 9 -34 13 -34 5z"/>
<path d="M4055 2670 c-3 -6 1 -7 9 -4 18 7 21 14 7 14 -6 0 -13 -4 -16 -10z"/>
<path d="M3755 2660 c-3 -5 -1 -10 4 -10 6 0 11 5 11 10 0 6 -2 10 -4 10 -3 0
-8 -4 -11 -10z"/>
<path d="M3876 2662 c-2 -4 -1 -14 5 -22 5 -8 9 -10 9 -5 0 6 5 3 10 -5 7 -12
9 -10 8 7 -2 14 -7 19 -17 15 -9 -3 -12 -1 -7 6 4 7 5 12 2 12 -3 0 -7 -4 -10
-8z"/>
<path d="M1832 2646 c7 -8 15 -12 17 -11 5 6 -10 25 -20 25 -5 0 -4 -6 3 -14z"/>
<path d="M2035 2650 c-3 -5 -3 -10 2 -10 4 0 1 -5 -7 -11 -12 -8 -12 -10 -1
-7 8 2 15 12 17 21 3 19 -2 22 -11 7z"/>
<path d="M2060 2656 c0 -2 7 -7 16 -10 8 -3 12 -2 9 4 -6 10 -25 14 -25 6z"/>
<path d="M3813 2644 c1 -15 6 -20 16 -16 10 4 12 1 6 -8 -5 -8 -4 -11 3 -6 6
4 9 13 6 21 -4 8 -10 13 -14 10 -5 -3 -10 1 -13 7 -3 7 -4 3 -4 -8z"/>
<path d="M1890 2643 c0 -5 14 -9 31 -9 35 -2 33 5 -5 12 -14 2 -26 1 -26 -3z"/>
<path d="M2106 2638 c3 -4 9 -8 15 -8 5 0 9 4 9 8 0 5 -7 9 -15 9 -8 0 -12 -4
-9 -9z"/>
<path d="M3966 2638 c3 -4 9 -8 15 -8 5 0 9 4 9 8 0 5 -7 9 -15 9 -8 0 -12 -4
-9 -9z"/>
<path d="M4033 2630 c1 -11 5 -20 9 -20 3 0 6 9 5 20 -1 11 -5 20 -9 20 -3 0
-6 -9 -5 -20z"/>
<path d="M2080 2620 c-8 -5 -11 -10 -6 -10 6 0 2 -6 -9 -13 -14 -11 -15 -16
-5 -22 9 -5 11 -4 6 3 -4 7 -3 12 3 12 6 0 15 9 21 20 12 23 11 24 -10 10z"/>
<path d="M1866 2604 c-5 -14 -4 -15 9 -4 17 14 19 20 6 20 -5 0 -12 -7 -15
-16z"/>
<path d="M3875 2610 c-4 -6 -10 -8 -15 -5 -5 3 -11 1 -14 -4 -8 -13 22 -7 36
7 7 7 9 12 6 12 -4 0 -10 -5 -13 -10z"/>
<path d="M2010 2606 c0 -2 7 -7 16 -10 8 -3 12 -2 9 4 -6 10 -25 14 -25 6z"/>
<path d="M2131 2594 c0 -11 3 -14 6 -6 3 7 2 16 -1 19 -3 4 -6 -2 -5 -13z"/>
<path d="M3937 2595 c-4 -8 -1 -17 5 -21 7 -5 8 -2 3 6 -6 10 -4 12 10 6 15
-5 16 -4 5 9 -15 19 -16 19 -23 0z"/>
<path d="M3997 2596 c-17 -13 -16 -14 3 -19 11 -3 23 0 27 5 4 7 1 8 -7 3 -10
-6 -12 -4 -7 8 8 20 7 20 -16 3z"/>
<path d="M4075 2600 c-3 -5 -3 -10 2 -10 4 0 1 -5 -7 -10 -8 -5 -10 -10 -5
-10 6 0 17 5 25 10 11 7 11 10 2 10 -7 0 -10 5 -7 10 3 6 4 10 1 10 -3 0 -8
-4 -11 -10z"/>
<path d="M1917 2593 c-10 -10 -8 -23 4 -23 5 0 7 5 3 12 -5 8 -2 9 10 5 10 -4
15 -3 11 3 -7 12 -19 13 -28 3z"/>
<path d="M1975 2581 c-6 -11 13 -26 22 -17 4 3 1 6 -6 6 -7 0 -9 5 -6 10 3 6
4 10 1 10 -3 0 -7 -4 -11 -9z"/>
<path d="M1857 2561 c-3 -15 -1 -18 11 -14 11 5 13 3 7 -7 -5 -9 -4 -11 4 -6
9 6 9 12 -1 24 -7 10 -13 18 -14 20 -1 1 -4 -6 -7 -17z"/>
<path d="M2036 2567 c3 -10 9 -15 12 -12 3 3 0 11 -7 18 -10 9 -11 8 -5 -6z"/>
<path d="M3881 2563 c7 -10 15 -20 16 -22 2 -2 3 3 3 11 0 9 -7 19 -16 22 -15
6 -15 4 -3 -11z"/>
<path d="M3913 2565 c0 -8 4 -12 9 -9 5 3 6 10 3 15 -9 13 -12 11 -12 -6z"/>
<path d="M4026 2565 c-11 -8 -15 -15 -9 -15 6 0 16 7 23 15 16 19 11 19 -14 0z"/>
<path d="M1990 2540 c0 -5 5 -10 10 -10 6 0 10 5 10 10 0 6 -4 10 -10 10 -5 0
-10 -4 -10 -10z"/>
<path d="M2115 2539 c-3 -4 2 -6 10 -5 21 3 28 13 10 13 -9 0 -18 -4 -20 -8z"/>
<path d="M3828 2543 c7 -3 16 -2 19 1 4 3 -2 6 -13 5 -11 0 -14 -3 -6 -6z"/>
<path d="M3950 2540 c0 -5 5 -10 10 -10 6 0 10 5 10 10 0 6 -4 10 -10 10 -5 0
-10 -4 -10 -10z"/>
<path d="M1830 2536 c0 -2 8 -10 18 -17 15 -13 16 -12 3 4 -13 16 -21 21 -21
13z"/>
<path d="M2078 2533 c7 -3 16 -2 19 1 4 3 -2 6 -13 5 -11 0 -14 -3 -6 -6z"/>
<path d="M1890 2518 c0 -11 12 -10 30 2 12 7 10 9 -8 7 -12 0 -22 -5 -22 -9z"/>
<path d="M3881 2516 c-9 -10 -8 -15 3 -19 11 -4 13 -1 9 10 -5 12 -3 14 7 8 9
-5 11 -4 6 3 -9 15 -11 15 -25 -2z"/>
<path d="M3973 2518 c-4 -7 -1 -8 7 -3 9 6 12 4 8 -7 -4 -8 0 -15 8 -15 7 0
10 5 7 10 -4 6 1 8 11 4 9 -4 15 -3 12 2 -9 14 -45 20 -53 9z"/>
<path d="M4084 2522 c4 -3 14 -7 22 -8 9 -1 13 0 10 4 -4 3 -14 7 -22 8 -9 1
-13 0 -10 -4z"/>
<path d="M2016 2511 c-4 -5 3 -7 14 -4 23 6 26 13 6 13 -8 0 -17 -4 -20 -9z"/>
<path d="M3920 2511 c0 -6 4 -13 10 -16 6 -3 7 1 4 9 -7 18 -14 21 -14 7z"/>
<path d="M1910 2483 c-20 -21 -21 -24 -5 -16 11 6 23 10 27 10 3 -1 10 2 15 7
5 6 2 6 -6 1 -11 -6 -13 -4 -8 8 8 22 7 21 -23 -10z"/>
<path d="M2067 2490 c3 -11 9 -20 15 -20 5 0 4 9 -2 20 -6 11 -12 20 -14 20
-2 0 -2 -9 1 -20z"/>
<path d="M4059 2508 c0 -2 -2 -13 -3 -25 -2 -15 2 -19 12 -15 11 4 13 1 7 -9
-4 -8 -4 -11 0 -6 16 14 13 46 -3 39 -10 -3 -13 -1 -8 6 4 7 5 12 2 12 -3 0
-6 -1 -7 -2z"/>
<path d="M2140 2489 c0 -5 -6 -7 -12 -3 -7 4 -9 3 -5 -1 13 -15 36 -14 30 1
-6 17 -13 18 -13 3z"/>
<path d="M3860 2486 c0 -2 8 -10 18 -17 15 -13 16 -12 3 4 -13 16 -21 21 -21
13z"/>
<path d="M3914 2482 c3 -5 0 -13 -6 -15 -9 -4 -10 -6 -1 -6 17 -1 25 16 12 25
-7 4 -9 3 -5 -4z"/>
<path d="M3960 2480 c8 -5 20 -10 25 -10 6 0 3 5 -5 10 -8 5 -19 10 -25 10 -5
0 -3 -5 5 -10z"/>
<path d="M1959 2475 c-1 -3 -2 -8 -3 -12 -1 -5 -5 -15 -10 -23 -7 -12 -6 -13
4 -3 13 12 23 43 14 43 -2 0 -5 -2 -5 -5z"/>
<path d="M3835 2460 c-11 -5 -14 -9 -7 -9 7 -1 11 -5 8 -10 -7 -11 21 -8 31 4
5 4 2 5 -6 0 -11 -6 -13 -4 -8 8 3 10 5 17 4 16 -1 0 -11 -4 -22 -9z"/>
<path d="M3947 2449 c4 -13 8 -18 11 -10 2 7 -1 18 -6 23 -8 8 -9 4 -5 -13z"/>
<path d="M1850 2450 c-9 -6 -10 -10 -3 -10 6 0 15 5 18 10 8 12 4 12 -15 0z"/>
<path d="M1990 2450 c-9 -6 -10 -10 -3 -10 6 0 15 5 18 10 8 12 4 12 -15 0z"/>
<path d="M2097 2444 c2 -7 11 -10 19 -7 19 7 18 10 -5 16 -13 3 -18 1 -14 -9z"/>
<path d="M1880 2436 c0 -8 4 -17 9 -20 5 -4 7 3 4 14 -6 23 -13 26 -13 6z"/>
<path d="M2041 2436 c-9 -11 -9 -16 0 -22 8 -5 9 -3 4 6 -6 10 -4 12 8 7 11
-4 14 -2 10 9 -6 17 -8 17 -22 0z"/>
<path d="M4110 2439 c0 -5 5 -7 10 -4 6 3 10 8 10 11 0 2 -4 4 -10 4 -5 0 -10
-5 -10 -11z"/>
<path d="M2155 2431 c-6 -11 13 -26 22 -17 4 3 1 6 -6 6 -7 0 -9 5 -6 10 3 6
4 10 1 10 -3 0 -7 -4 -11 -9z"/>
<path d="M1998 2423 c7 -3 16 -2 19 1 4 3 -2 6 -13 5 -11 0 -14 -3 -6 -6z"/>
<path d="M2072 2410 c-18 -29 -15 -38 4 -12 9 13 14 25 12 27 -2 2 -9 -5 -16
-15z"/>
<path d="M3875 2421 c3 -6 -3 -14 -12 -20 -10 -6 -13 -11 -7 -11 12 0 34 20
34 32 0 4 -5 8 -11 8 -5 0 -8 -4 -4 -9z"/>
<path d="M1917 2413 c-10 -10 -8 -23 4 -23 5 0 8 4 5 9 -4 5 0 12 6 14 7 3 8
6 2 6 -6 1 -14 -2 -17 -6z"/>
<path d="M1958 2408 c12 -16 35 -18 48 -6 3 4 -2 5 -13 4 -10 -2 -25 2 -33 8
-13 9 -13 9 -2 -6z"/>
<path d="M3928 2410 c-9 -6 -15 -16 -14 -23 3 -18 25 -54 26 -41 0 6 -3 14 -7
18 -13 12 -12 38 1 33 7 -3 13 1 13 9 0 8 -1 14 -1 14 -1 0 -8 -5 -18 -10z"/>
<path d="M1855 2400 c-3 -5 -1 -10 4 -10 6 0 11 5 11 10 0 6 -2 10 -4 10 -3 0
-8 -4 -11 -10z"/>
<path d="M2121 2398 c-1 -21 15 -32 25 -17 4 7 3 9 -4 5 -6 -3 -13 2 -15 11
-4 16 -5 16 -6 1z"/>
<path d="M3964 2399 c-3 -6 -2 -15 4 -21 6 -6 12 -6 17 3 6 8 4 10 -5 4 -10
-6 -12 -4 -7 8 7 19 2 23 -9 6z"/>
<path d="M4077 2387 c-3 -8 1 -14 8 -14 7 0 11 6 8 14 -3 7 -6 13 -8 13 -2 0
-5 -6 -8 -13z"/>
<path d="M1879 2364 c-5 -15 -8 -29 -5 -31 2 -2 8 10 14 26 13 38 5 41 -9 5z"/>
<path d="M2155 2370 c-16 -17 -16 -20 -3 -15 9 4 19 13 22 21 7 19 2 18 -19
-6z"/>
<path d="M1950 2376 c0 -2 7 -9 15 -16 13 -11 14 -10 9 4 -5 14 -24 23 -24 12z"/>
<path d="M2010 2360 c0 -5 5 -10 10 -10 6 0 10 5 10 10 0 6 -4 10 -10 10 -5 0
-10 -4 -10 -10z"/>
<path d="M2070 2362 c0 -5 7 -9 15 -9 8 0 12 4 9 9 -3 4 -9 8 -15 8 -5 0 -9
-4 -9 -8z"/>
<path d="M3880 2355 c-11 -13 -10 -14 4 -9 9 3 16 10 16 15 0 13 -6 11 -20 -6z"/>
<path d="M2115 2349 c-4 -6 -5 -12 -2 -15 2 -3 7 2 10 11 7 17 1 20 -8 4z"/>
<path d="M3955 2349 c-4 -6 -5 -12 -2 -15 2 -3 7 2 10 11 7 17 1 20 -8 4z"/>
<path d="M4056 2351 c-4 -5 3 -7 14 -4 23 6 26 13 6 13 -8 0 -17 -4 -20 -9z"/>
<path d="M4157 2353 c-10 -9 -9 -23 1 -23 5 0 9 7 9 15 0 17 -1 18 -10 8z"/>
<path d="M1916 2338 c5 -8 1 -9 -12 -4 -14 5 -16 4 -7 -5 6 -6 16 -8 22 -5 14
9 14 26 0 26 -5 0 -7 -5 -3 -12z"/>
<path d="M2037 2343 c-5 -9 10 -53 17 -53 3 0 2 7 -1 17 -4 10 -2 14 4 10 5
-3 10 0 10 7 0 8 -7 12 -15 8 -10 -3 -13 -1 -8 6 4 7 5 12 2 12 -3 0 -7 -3 -9
-7z"/>
<path d="M2175 2340 c6 -10 4 -12 -11 -6 -10 4 -15 4 -11 0 4 -4 -1 -13 -11
-21 -16 -12 -16 -13 2 -6 15 5 17 3 11 -8 -4 -8 -5 -11 -1 -7 4 3 8 10 8 15 1
4 8 13 16 19 12 9 12 13 2 19 -9 6 -11 4 -5 -5z"/>
<path d="M4015 2340 c6 -9 4 -12 -7 -8 -8 4 -15 1 -15 -6 0 -17 25 -16 31 0 3
8 0 16 -6 20 -7 5 -8 2 -3 -6z"/>
<path d="M1963 2320 c-11 -16 -10 -18 4 -13 12 5 14 3 8 -7 -5 -8 -4 -11 3 -7
5 4 8 16 5 27 -6 24 -5 24 -20 0z"/>
<path d="M3861 2314 c0 -11 3 -14 6 -6 3 7 2 16 -1 19 -3 4 -6 -2 -5 -13z"/>
<path d="M3914 2322 c4 -3 14 -7 22 -8 9 -1 13 0 10 4 -4 3 -14 7 -22 8 -9 1
-13 0 -10 -4z"/>
<path d="M4115 2310 c2 -11 -3 -24 -13 -30 -9 -5 -12 -10 -5 -10 21 0 40 45
23 55 -5 3 -7 -4 -5 -15z"/>
<path d="M4066 2303 c-6 -14 -5 -15 5 -6 7 7 10 15 7 18 -3 3 -9 -2 -12 -12z"/>
<path d="M1991 2287 c-13 -21 -12 -21 5 -5 10 10 16 20 13 22 -3 3 -11 -5 -18
-17z"/>
<path d="M4167 2299 c7 -7 15 -10 18 -7 3 3 -2 9 -12 12 -14 6 -15 5 -6 -5z"/>
<path d="M3950 2296 c0 -2 7 -9 15 -16 9 -7 15 -8 15 -2 0 5 -7 12 -15 16 -8
3 -15 4 -15 2z"/>
<path d="M1926 2278 c3 -4 9 -8 15 -8 5 0 9 4 9 8 0 5 -7 9 -15 9 -8 0 -12 -4
-9 -9z"/>
<path d="M2065 2280 c-3 -6 1 -7 9 -4 18 7 21 14 7 14 -6 0 -13 -4 -16 -10z"/>
<path d="M2165 2279 c-3 -4 2 -6 10 -5 21 3 28 13 10 13 -9 0 -18 -4 -20 -8z"/>
<path d="M3894 2279 c-5 -8 -3 -9 6 -4 10 6 12 4 7 -7 -4 -12 -1 -14 14 -11
11 3 18 6 17 7 -2 1 -10 7 -20 14 -12 10 -18 10 -24 1z"/>
<path d="M3993 2255 c0 -8 4 -12 9 -9 4 3 8 9 8 15 0 5 -4 9 -8 9 -5 0 -9 -7
-9 -15z"/>
<path d="M4047 2263 c-9 -9 -9 -41 1 -46 4 -3 7 8 7 24 0 16 0 29 -1 29 0 0
-4 -3 -7 -7z"/>
<path d="M1980 2251 c0 -7 -5 -9 -12 -5 -7 5 -8 3 -3 -5 5 -9 10 -10 18 -2 6
6 8 14 4 18 -4 3 -7 1 -7 -6z"/>
<path d="M2068 2249 c-4 -11 1 -15 18 -15 13 0 24 4 24 9 0 5 -6 7 -14 4 -8
-3 -16 -1 -19 6 -2 7 -6 5 -9 -4z"/>
<path d="M4114 2240 c0 -13 4 -16 10 -10 7 7 7 13 0 20 -6 6 -10 3 -10 -10z"/>
<path d="M3872 2238 c2 -6 10 -13 16 -14 7 -1 8 0 2 3 -5 2 -8 9 -4 14 3 5 0
9 -6 9 -7 0 -10 -5 -8 -12z"/>
<path d="M1919 2233 c-1 -5 -1 -12 0 -17 1 -5 -6 -5 -16 -2 -14 6 -15 4 -6 -5
13 -13 36 -2 27 13 -5 8 -1 9 10 5 10 -4 15 -3 11 3 -7 12 -24 13 -26 3z"/>
<path d="M3955 2230 c-4 -6 1 -7 11 -3 13 5 15 3 9 -7 -5 -9 -4 -11 4 -6 6 4
9 12 6 17 -8 12 -22 12 -30 -1z"/>
<path d="M2014 2222 c3 -6 -2 -13 -11 -15 -16 -4 -16 -5 -1 -6 21 -1 32 15 17
25 -7 4 -9 3 -5 -4z"/>
<path d="M2122 2221 c-10 -6 -10 -10 2 -20 11 -9 16 -9 22 0 5 8 3 9 -6 4 -10
-6 -12 -4 -7 8 7 19 7 20 -11 8z"/>
<path d="M2195 2220 c-16 -7 -17 -9 -3 -9 9 -1 20 4 23 9 7 11 7 11 -20 0z"/>
<path d="M3991 2207 c-13 -21 -12 -21 5 -5 10 10 16 20 13 22 -3 3 -11 -5 -18
-17z"/>
<path d="M4196 2207 c3 -10 9 -15 12 -12 3 3 0 11 -7 18 -10 9 -11 8 -5 -6z"/>
<path d="M1947 2191 c-4 -17 -3 -21 5 -13 5 5 8 16 6 23 -3 8 -7 3 -11 -10z"/>
<path d="M2047 2199 c7 -7 15 -10 18 -7 3 3 -2 9 -12 12 -14 6 -15 5 -6 -5z"/>
<path d="M3926 2198 c3 -4 9 -8 15 -8 5 0 9 4 9 8 0 5 -7 9 -15 9 -8 0 -12 -4
-9 -9z"/>
<path d="M4090 2206 c0 -2 7 -7 16 -10 8 -3 12 -2 9 4 -6 10 -25 14 -25 6z"/>
<path d="M4135 2191 c-3 -5 0 -13 6 -17 7 -4 9 -3 5 4 -3 6 2 13 11 15 16 4
16 5 1 6 -9 0 -19 -3 -23 -8z"/>
<path d="M4055 2179 c-6 -8 -4 -10 5 -4 9 5 10 1 6 -16 -6 -21 -6 -22 5 -6 7
13 8 22 1 29 -6 6 -12 6 -17 -3z"/>
<path d="M2039 2178 c-6 -21 -5 -37 2 -32 5 3 7 9 4 14 -3 4 1 11 7 13 10 4
10 6 1 6 -7 1 -13 0 -14 -1z"/>
<path d="M2134 2170 c1 -7 6 -12 11 -12 6 -1 16 -8 23 -17 11 -14 11 -13 2 7
-6 12 -15 20 -20 17 -4 -3 -11 0 -13 5 -4 7 -5 6 -3 0z"/>
<path d="M3898 2158 c3 -13 7 -17 10 -10 2 7 8 10 13 6 5 -3 9 -3 9 0 0 3 -9
10 -19 15 -17 9 -18 8 -13 -11z"/>
<path d="M3980 2169 c0 -5 -6 -7 -12 -3 -7 4 -9 3 -5 -1 13 -15 36 -14 30 1
-6 17 -13 18 -13 3z"/>
<path d="M4116 2167 c3 -10 9 -15 12 -12 3 3 0 11 -7 18 -10 9 -11 8 -5 -6z"/>
<path d="M1904 2163 c4 -4 16 -8 28 -10 28 -4 18 6 -12 12 -12 2 -20 1 -16 -2z"/>
<path d="M2107 2159 c7 -9 11 -18 8 -21 -3 -3 3 -11 12 -19 16 -12 17 -12 6 2
-7 9 -11 18 -8 21 3 3 -3 11 -12 19 -16 12 -17 12 -6 -2z"/>
<path d="M4186 2157 c3 -10 9 -15 12 -12 3 3 0 11 -7 18 -10 9 -11 8 -5 -6z"/>
<path d="M1998 2143 c7 -3 16 -2 19 1 4 3 -2 6 -13 5 -11 0 -14 -3 -6 -6z"/>
<path d="M2191 2127 c-13 -21 -12 -21 5 -5 10 10 16 20 13 22 -3 3 -11 -5 -18
-17z"/>
<path d="M4076 2135 c-9 -26 -7 -32 5 -12 6 10 9 21 6 23 -2 3 -7 -2 -11 -11z"/>
<path d="M3937 2124 c2 -7 11 -10 19 -7 19 7 18 10 -5 16 -13 3 -18 1 -14 -9z"/>
<path d="M2010 2126 c0 -2 7 -7 16 -10 8 -3 12 -2 9 4 -6 10 -25 14 -25 6z"/>
<path d="M2072 2119 c-19 -7 -23 -29 -6 -29 3 0 2 5 -2 12 -5 7 -2 9 9 5 9 -3
18 0 21 9 3 8 4 14 3 13 -1 0 -12 -4 -25 -10z"/>
<path d="M3907 2119 c7 -9 10 -19 6 -22 -3 -4 -1 -7 5 -7 17 0 15 16 -5 31
-16 12 -17 12 -6 -2z"/>
<path d="M3999 2113 c-12 -16 -12 -17 2 -6 9 7 19 10 22 6 4 -3 7 -1 7 5 0 17
-16 15 -31 -5z"/>
<path d="M4097 2116 c-4 -10 1 -12 14 -9 23 6 24 9 5 16 -8 3 -17 0 -19 -7z"/>
<path d="M4186 2118 c3 -5 10 -6 15 -3 13 9 11 12 -6 12 -8 0 -12 -4 -9 -9z"/>
<path d="M1917 2113 c-10 -10 -8 -23 4 -23 5 0 7 5 3 12 -5 8 -2 9 10 5 10 -4
15 -3 11 3 -7 12 -19 13 -28 3z"/>
<path d="M1975 2101 c-6 -11 13 -26 22 -17 4 3 1 6 -6 6 -7 0 -9 5 -6 10 3 6
4 10 1 10 -3 0 -7 -4 -11 -9z"/>
<path d="M2195 2101 c-9 -15 15 -25 28 -12 9 9 7 10 -7 5 -13 -5 -17 -4 -12 4
4 7 5 12 2 12 -3 0 -7 -4 -11 -9z"/>
<path d="M4036 2102 c-2 -4 2 -15 9 -25 12 -17 13 -16 18 2 3 15 1 18 -11 14
-10 -4 -13 -2 -8 5 4 7 5 12 2 12 -3 0 -7 -3 -10 -8z"/>
<path d="M4147 2093 c3 -7 9 -13 15 -13 5 0 7 4 4 9 -4 5 0 11 6 14 7 3 3 4
-8 4 -14 -1 -20 -6 -17 -14z"/>
<path d="M4205 2100 c-3 -6 1 -7 9 -4 18 7 21 14 7 14 -6 0 -13 -4 -16 -10z"/>
<path d="M2036 2087 c3 -10 9 -15 12 -12 3 3 0 11 -7 18 -10 9 -11 8 -5 -6z"/>
<path d="M2119 2098 c-5 -18 -6 -38 -1 -34 7 8 12 36 6 36 -2 0 -4 -1 -5 -2z"/>
<path d="M1947 2071 c-4 -17 -3 -21 5 -13 5 5 8 16 6 23 -3 8 -7 3 -11 -10z"/>
<path d="M3959 2080 c-1 -5 -2 -15 -3 -20 0 -6 -8 -15 -16 -20 -9 -6 -10 -10
-3 -10 6 0 15 6 20 13 9 15 15 47 8 47 -3 0 -6 -4 -6 -10z"/>
<path d="M2233 2065 c0 -8 4 -12 9 -9 5 3 6 10 3 15 -9 13 -12 11 -12 -6z"/>
<path d="M4113 2065 c0 -8 4 -15 9 -15 4 0 8 4 8 9 0 6 -4 12 -8 15 -5 3 -9
-1 -9 -9z"/>
<path d="M4197 2073 c-10 -9 -9 -23 1 -23 5 0 9 7 9 15 0 17 -1 18 -10 8z"/>
<path d="M1990 2060 c0 -5 5 -10 10 -10 6 0 10 5 10 10 0 6 -4 10 -10 10 -5 0
-10 -4 -10 -10z"/>
<path d="M2075 2061 c-3 -5 0 -13 6 -17 7 -4 9 -3 5 4 -3 5 0 13 6 15 9 4 10
6 1 6 -6 1 -14 -3 -18 -8z"/>
<path d="M2147 2052 c5 -11 3 -13 -7 -7 -9 5 -11 4 -6 -4 6 -9 12 -9 24 1 10
7 18 13 20 14 1 1 -6 4 -17 7 -15 3 -18 1 -14 -11z"/>
<path d="M2190 2056 c0 -2 7 -9 15 -16 9 -7 15 -8 15 -2 0 5 -7 12 -15 16 -8
3 -15 4 -15 2z"/>
<path d="M3990 2050 c-9 -6 -10 -10 -3 -10 6 0 15 5 18 10 8 12 4 12 -15 0z"/>
<path d="M2017 2036 c-4 -10 1 -12 14 -9 23 6 24 9 5 16 -8 3 -17 0 -19 -7z"/>
<path d="M4026 2035 c4 -8 11 -15 16 -15 6 0 5 6 -2 15 -7 8 -14 15 -16 15 -2
0 -1 -7 2 -15z"/>
<path d="M4084 2039 c-3 -6 -1 -16 5 -22 9 -9 10 -7 5 7 -6 15 -4 17 6 11 9
-5 11 -4 6 3 -9 15 -13 15 -22 1z"/>
<path d="M4213 2037 c-4 -6 -1 -7 7 -2 9 6 12 4 8 -6 -4 -10 1 -15 15 -17 16
-1 18 1 8 7 -7 5 -11 13 -8 18 3 5 -1 10 -9 10 -8 0 -18 -5 -21 -10z"/>
<path d="M2235 2030 c-3 -5 -4 -10 -1 -10 3 0 1 -12 -5 -27 -7 -18 -7 -24 0
-18 5 6 12 22 15 38 5 28 2 34 -9 17z"/>
<path d="M2110 2021 c0 -6 4 -12 8 -15 5 -3 9 1 9 9 0 8 -4 15 -9 15 -4 0 -8
-4 -8 -9z"/>
<path d="M3959 2008 c15 -21 31 -23 31 -6 0 6 -3 8 -7 5 -3 -4 -13 -1 -22 6
-14 11 -14 10 -2 -5z"/>
<path d="M4109 2003 c-13 -16 -12 -17 4 -4 16 13 21 21 13 21 -2 0 -10 -8 -17
-17z"/>
<path d="M4148 2013 c6 -2 18 -2 25 0 6 3 1 5 -13 5 -14 0 -19 -2 -12 -5z"/>
<path d="M1975 2000 c-3 -5 -1 -10 4 -10 6 0 11 5 11 10 0 6 -2 10 -4 10 -3 0
-8 -4 -11 -10z"/>
<path d="M2056 1998 c3 -5 8 -7 12 -4 3 3 11 -2 19 -12 13 -16 14 -16 5 2 -5
11 -17 21 -26 22 -9 1 -13 -2 -10 -8z"/>
<path d="M2155 2000 c-3 -5 -1 -10 4 -10 6 0 11 5 11 10 0 6 -2 10 -4 10 -3 0
-8 -4 -11 -10z"/>
<path d="M4038 1992 c-11 -15 -11 -15 2 -6 8 6 23 10 33 8 11 -1 16 0 13 4
-13 12 -36 10 -48 -6z"/>
<path d="M4200 2000 c8 -5 20 -10 25 -10 6 0 3 5 -5 10 -8 5 -19 10 -25 10 -5
0 -3 -5 5 -10z"/>
<path d="M2034 1985 c1 -8 8 -21 16 -28 12 -10 12 -9 2 4 -6 9 -9 18 -6 21 3
3 1 9 -4 12 -6 3 -9 -1 -8 -9z"/>
<path d="M4122 1981 c-10 -6 -10 -10 2 -20 11 -9 16 -9 22 0 5 8 3 9 -6 4 -10
-6 -12 -4 -7 8 7 19 7 20 -11 8z"/>
<path d="M4187 1969 c4 -13 8 -18 11 -10 2 7 -1 18 -6 23 -8 8 -9 4 -5 -13z"/>
<path d="M2178 1968 c5 -5 16 -8 23 -6 8 3 3 7 -10 11 -17 4 -21 3 -13 -5z"/>
<path d="M4067 1967 c-3 -8 1 -14 8 -14 7 0 11 6 8 14 -3 7 -6 13 -8 13 -2 0
-5 -6 -8 -13z"/>
<path d="M2005 1959 c-4 -6 -5 -12 -2 -15 2 -3 7 2 10 11 7 17 1 20 -8 4z"/>
<path d="M3984 1954 c-18 -14 -18 -15 4 -4 12 6 22 13 22 15 0 8 -5 6 -26 -11z"/>
<path d="M4026 1960 c5 -8 9 -18 9 -22 0 -3 3 -9 7 -13 3 -4 5 0 4 9 -1 9 -8
22 -16 29 -10 10 -11 9 -4 -3z"/>
<path d="M2150 1940 c0 -5 5 -10 10 -10 6 0 10 5 10 10 0 6 -4 10 -10 10 -5 0
-10 -4 -10 -10z"/>
<path d="M3955 1928 c4 -13 11 -27 16 -33 5 -5 4 5 -2 23 -12 36 -24 44 -14
10z"/>
<path d="M4250 1939 c0 -5 5 -7 10 -4 6 3 10 8 10 11 0 2 -4 4 -10 4 -5 0 -10
-5 -10 -11z"/>
<path d="M2037 1933 c-10 -9 -9 -23 1 -23 5 0 9 7 9 15 0 17 -1 18 -10 8z"/>
<path d="M4165 1930 c-16 -7 -17 -9 -3 -9 9 -1 20 4 23 9 7 11 7 11 -20 0z"/>
<path d="M2110 1921 c0 -6 4 -13 10 -16 6 -3 7 1 4 9 -7 18 -14 21 -14 7z"/>
<path d="M2196 1913 c-6 -14 -5 -15 5 -6 7 7 10 15 7 18 -3 3 -9 -2 -12 -12z"/>
<path d="M4004 1919 c-3 -6 -1 -16 5 -22 9 -9 10 -7 5 7 -6 15 -4 17 6 11 9
-5 11 -4 6 3 -9 15 -13 15 -22 1z"/>
<path d="M4097 1916 c-4 -10 -1 -13 8 -9 8 3 12 9 9 14 -7 12 -11 11 -17 -5z"/>
<path d="M4204 1919 c-4 -7 -3 -9 4 -5 5 3 13 0 15 -6 4 -9 6 -10 6 -1 1 17
-16 25 -25 12z"/>
<path d="M1998 1902 c-17 -7 -17 -8 2 -19 14 -9 21 -10 26 -1 5 7 3 8 -6 3
-10 -6 -12 -4 -7 8 3 10 5 17 4 16 -1 0 -10 -4 -19 -7z"/>
<path d="M2068 1903 c7 -3 16 -2 19 1 4 3 -2 6 -13 5 -11 0 -14 -3 -6 -6z"/>
<path d="M2085 1890 c-16 -7 -17 -9 -3 -9 9 -1 20 4 23 9 7 11 7 11 -20 0z"/>
<path d="M2217 1889 c7 -7 15 -10 18 -7 3 3 -2 9 -12 12 -14 6 -15 5 -6 -5z"/>
<path d="M2180 1880 c-9 -6 -10 -10 -3 -10 6 0 15 5 18 10 8 12 4 12 -15 0z"/>
<path d="M3990 1880 c0 -5 5 -10 11 -10 5 0 7 5 4 10 -3 6 -8 10 -11 10 -2 0
-4 -4 -4 -10z"/>
<path d="M4076 1875 c-9 -26 -7 -32 5 -12 6 10 9 21 6 23 -2 3 -7 -2 -11 -11z"/>
<path d="M4130 1880 c0 -5 5 -10 10 -10 6 0 10 5 10 10 0 6 -4 10 -10 10 -5 0
-10 -4 -10 -10z"/>
<path d="M4166 1882 c-3 -5 1 -9 9 -9 8 0 15 4 15 9 0 4 -4 8 -9 8 -6 0 -12
-4 -15 -8z"/>
<path d="M4231 1873 c7 -12 15 -20 18 -17 3 2 -3 12 -13 22 -17 16 -18 16 -5
-5z"/>
<path d="M2033 1863 c4 -3 1 -13 -6 -22 -11 -14 -10 -14 6 -2 20 15 22 31 5
31 -6 0 -8 -3 -5 -7z"/>
<path d="M4115 1860 c6 -10 4 -12 -7 -7 -12 4 -14 1 -11 -14 3 -11 6 -18 7
-17 1 2 7 10 14 20 10 12 10 18 1 24 -8 5 -9 3 -4 -6z"/>
<path d="M4196 1862 c-2 -4 2 -15 9 -25 12 -17 13 -16 18 2 3 15 1 18 -11 14
-10 -4 -13 -2 -8 5 4 7 5 12 2 12 -3 0 -7 -3 -10 -8z"/>
<path d="M2119 1858 c-6 -21 -5 -37 2 -32 5 3 7 9 4 14 -3 4 1 11 7 13 10 4
10 6 1 6 -7 1 -13 0 -14 -1z"/>
<path d="M2195 1847 c11 -6 22 -12 25 -12 3 0 10 -4 16 -8 7 -4 14 -1 17 7 4
9 -2 12 -19 10 -13 -1 -26 2 -30 7 -3 5 -11 9 -17 9 -7 0 -3 -6 8 -13z"/>
<path d="M3981 1834 c0 -11 3 -14 6 -6 3 7 2 16 -1 19 -3 4 -6 -2 -5 -13z"/>
<path d="M4014 1834 c1 -8 6 -17 11 -21 4 -5 5 -2 0 6 -6 11 -4 13 8 8 10 -4
14 -2 11 7 -6 17 -32 16 -30 0z"/>
<path d="M4277 1836 c-4 -10 -1 -13 8 -9 8 3 12 9 9 14 -7 12 -11 11 -17 -5z"/>
<path d="M2074 1825 c1 -8 6 -18 11 -22 4 -4 5 -3 2 4 -4 6 -2 13 5 15 8 3 6
6 -4 10 -10 4 -15 2 -14 -7z"/>
<path d="M4153 1825 c0 -8 4 -15 9 -15 4 0 8 4 8 9 0 6 -4 12 -8 15 -5 3 -9
-1 -9 -9z"/>
<path d="M2146 1816 c6 -15 4 -17 -6 -11 -9 6 -11 4 -5 -4 5 -9 10 -10 18 -2
8 8 7 14 -2 24 -10 10 -11 8 -5 -7z"/>
<path d="M4076 1815 c-3 -9 -10 -13 -16 -10 -5 3 -10 1 -10 -4 0 -6 4 -11 9
-11 12 0 35 29 29 36 -3 3 -8 -2 -12 -11z"/>
<path d="M2190 1816 c0 -2 7 -9 15 -16 13 -11 14 -10 9 4 -5 14 -24 23 -24 12z"/>
<path d="M1985 1800 c-3 -6 1 -7 9 -4 18 7 21 14 7 14 -6 0 -13 -4 -16 -10z"/>
<path d="M2037 1796 c-3 -8 0 -17 7 -19 10 -4 12 1 9 14 -6 23 -9 24 -16 5z"/>
<path d="M2239 1793 c-13 -16 -12 -17 4 -4 9 7 17 15 17 17 0 8 -8 3 -21 -13z"/>
<path d="M2270 1806 c0 -2 7 -6 15 -10 8 -3 15 -1 15 4 0 6 -7 10 -15 10 -8 0
-15 -2 -15 -4z"/>
<path d="M4121 1796 c-9 -10 -8 -15 3 -19 9 -4 18 -1 22 5 5 7 2 8 -6 3 -10
-6 -12 -4 -7 8 8 21 3 22 -12 3z"/>
<path d="M4200 1795 c-7 -9 -8 -15 -2 -15 5 0 12 7 16 15 3 8 4 15 2 15 -2 0
-9 -7 -16 -15z"/>
<path d="M4250 1801 c0 -4 11 -7 25 -7 14 0 25 3 25 7 0 3 -11 7 -25 7 -14 0
-25 -4 -25 -7z"/>
<path d="M2110 1781 c0 -6 4 -12 8 -15 5 -3 9 1 9 9 0 8 -4 15 -9 15 -4 0 -8
-4 -8 -9z"/>
<path d="M2267 1769 c4 -13 8 -18 11 -10 2 7 -1 18 -6 23 -8 8 -9 4 -5 -13z"/>
<path d="M2177 1761 c-3 -15 -1 -18 11 -14 11 5 13 3 7 -7 -5 -9 -4 -11 4 -6
9 6 9 12 -1 24 -7 10 -13 18 -14 20 -1 1 -4 -6 -7 -17z"/>
<path d="M2299 1778 c-8 -27 -5 -36 9 -30 10 4 12 7 4 10 -7 2 -10 8 -6 13 3
5 3 9 0 9 -3 0 -6 -1 -7 -2z"/>
<path d="M4072 1775 c4 -4 3 -15 -2 -25 -6 -12 -5 -17 5 -17 7 0 11 6 8 13 -5
13 21 14 33 1 4 -4 12 -7 18 -7 10 1 -22 24 -34 25 -3 0 -12 4 -20 9 -8 5 -12
6 -8 1z"/>
<path d="M4235 1770 c-4 -6 -9 -8 -13 -6 -4 2 -16 -2 -27 -10 -10 -8 -14 -14
-9 -14 6 0 14 3 18 7 12 13 38 12 33 -1 -3 -7 1 -13 8 -13 10 0 11 5 5 17 -5
10 -6 20 -3 24 3 3 4 6 0 6 -3 0 -9 -5 -12 -10z"/>
<path d="M4300 1771 c0 -6 4 -13 10 -16 6 -3 7 1 4 9 -7 18 -14 21 -14 7z"/>
<path d="M2064 1758 c-5 -7 -3 -8 6 -3 9 6 12 4 8 -7 -4 -8 0 -15 7 -15 10 0
11 5 4 19 -11 21 -15 22 -25 6z"/>
<path d="M1990 1750 c0 -6 7 -10 15 -10 8 0 15 2 15 4 0 2 -7 6 -15 10 -8 3
-15 1 -15 -4z"/>
<path d="M2126 1731 c-17 -6 -17 -8 -4 -14 10 -3 19 0 22 9 3 8 4 14 3 13 -1
0 -11 -4 -21 -8z"/>
<path d="M4018 1728 c5 -5 16 -8 23 -6 8 3 3 7 -10 11 -17 4 -21 3 -13 -5z"/>
<path d="M2010 1726 c0 -2 7 -7 16 -10 8 -3 12 -2 9 4 -6 10 -25 14 -25 6z"/>
<path d="M2156 1715 c-9 -26 -7 -32 5 -12 6 10 9 21 6 23 -2 3 -7 -2 -11 -11z"/>
<path d="M2210 1718 c0 -11 12 -10 30 2 12 7 10 9 -8 7 -12 0 -22 -5 -22 -9z"/>
<path d="M4125 1720 c-3 -6 1 -7 9 -4 18 7 21 14 7 14 -6 0 -13 -4 -16 -10z"/>
<path d="M2055 1711 c-3 -5 0 -13 6 -17 8 -5 9 -3 4 6 -6 10 -4 12 9 7 10 -4
15 -3 11 3 -8 13 -22 13 -30 1z"/>
<path d="M4075 1711 c-3 -5 0 -13 6 -17 8 -5 9 -3 4 6 -6 10 -4 12 9 7 10 -4
15 -3 11 3 -8 13 -22 13 -30 1z"/>
<path d="M4216 1711 c-4 -5 3 -7 14 -4 23 6 26 13 6 13 -8 0 -17 -4 -20 -9z"/>
<path d="M4317 1713 c-10 -9 -9 -23 1 -23 5 0 9 7 9 15 0 17 -1 18 -10 8z"/>
<path d="M2166 1683 c-6 -14 -5 -15 5 -6 7 7 10 15 7 18 -3 3 -9 -2 -12 -12z"/>
<path d="M4109 1683 c-13 -16 -12 -17 4 -4 16 13 21 21 13 21 -2 0 -10 -8 -17
-17z"/>
<path d="M4193 1685 c0 -8 4 -12 9 -9 5 3 6 10 3 15 -9 13 -12 11 -12 -6z"/>
<path d="M2084 1679 c-3 -6 -2 -15 4 -21 6 -6 12 -6 17 3 6 8 4 10 -5 4 -10
-6 -12 -4 -7 8 7 19 2 23 -9 6z"/>
<path d="M2240 1680 c-12 -7 -10 -9 8 -7 12 0 22 5 22 9 0 11 -12 10 -30 -2z"/>
<path d="M2310 1680 c0 -5 5 -10 11 -10 5 0 7 5 4 10 -3 6 -8 10 -11 10 -2 0
-4 -4 -4 -10z"/>
<path d="M4146 1678 c3 -5 9 -6 14 -3 4 3 11 -1 13 -7 4 -8 6 -7 6 4 1 11 -6
16 -18 15 -11 0 -17 -5 -15 -9z"/>
<path d="M4241 1676 c-9 -11 -9 -16 0 -22 8 -5 9 -3 4 6 -6 10 -4 12 8 7 11
-4 14 -2 10 9 -6 17 -8 17 -22 0z"/>
<path d="M2030 1662 c0 -12 22 -32 35 -32 5 0 2 5 -8 11 -9 6 -15 14 -12 20 4
5 1 9 -4 9 -6 0 -11 -4 -11 -8z"/>
<path d="M2177 1644 c2 -7 11 -10 19 -7 19 7 18 10 -5 16 -13 3 -18 1 -14 -9z"/>
<path d="M2266 1644 c-5 -14 -4 -15 9 -4 17 14 19 20 6 20 -5 0 -12 -7 -15
-16z"/>
<path d="M4110 1656 c0 -2 7 -9 15 -16 9 -7 15 -8 15 -2 0 5 -7 12 -15 16 -8
3 -15 4 -15 2z"/>
<path d="M4197 1650 c7 -8 20 -15 29 -16 9 -1 13 1 9 4 -4 4 -10 7 -13 7 -4 0
-14 4 -22 9 -12 7 -13 6 -3 -4z"/>
<path d="M4054 1639 c-5 -8 -3 -9 6 -4 10 6 12 4 7 -7 -4 -12 -1 -14 14 -11
11 3 18 6 17 7 -2 1 -10 7 -20 14 -12 10 -18 10 -24 1z"/>
<path d="M4163 1638 c-11 -19 -12 -37 -3 -43 5 -3 7 3 5 12 -1 10 2 24 8 31 5
6 7 12 4 12 -3 0 -9 -6 -14 -12z"/>
<path d="M4315 1640 c3 -5 8 -10 11 -10 2 0 4 5 4 10 0 6 -5 10 -11 10 -5 0
-7 -4 -4 -10z"/>
<path d="M2107 1609 c4 -13 8 -18 11 -10 2 7 -1 18 -6 23 -8 8 -9 4 -5 -13z"/>
<path d="M2154 1614 c4 -11 2 -15 -7 -11 -8 3 -14 -1 -14 -8 0 -10 5 -11 17
-5 10 5 21 6 26 2 5 -4 3 0 -4 9 -6 9 -9 19 -5 22 3 4 1 7 -6 7 -8 0 -11 -6
-7 -16z"/>
<path d="M4336 1613 c-6 -14 -5 -15 5 -6 7 7 10 15 7 18 -3 3 -9 -2 -12 -12z"/>
<path d="M2283 1600 c-9 -14 -10 -21 -1 -26 7 -5 8 -3 3 6 -6 10 -4 12 7 7 12
-4 14 -1 11 14 -6 23 -6 23 -20 -1z"/>
<path d="M4190 1610 c-9 -6 -10 -10 -3 -10 6 0 15 5 18 10 8 12 4 12 -15 0z"/>
<path d="M2199 1600 c-1 -5 -2 -15 -3 -20 0 -6 -8 -15 -16 -20 -9 -6 -10 -10
-3 -10 6 0 15 6 20 13 9 15 15 47 8 47 -3 0 -6 -4 -6 -10z"/>
<path d="M4032 1598 c2 -6 10 -13 16 -14 7 -1 8 0 2 3 -5 2 -8 9 -4 14 3 5 0
9 -6 9 -7 0 -10 -5 -8 -12z"/>
<path d="M4280 1600 c-8 -5 -10 -10 -5 -10 6 0 17 5 25 10 8 5 11 10 5 10 -5
0 -17 -5 -25 -10z"/>
<path d="M4115 1591 c-3 -5 0 -13 6 -17 8 -5 9 -3 4 6 -6 10 -4 12 9 7 10 -4
15 -3 11 3 -8 13 -22 13 -30 1z"/>
<path d="M4241 1581 c-8 -5 -9 -11 -3 -15 5 -3 12 1 16 9 6 17 6 18 -13 6z"/>
<path d="M4308 1572 c4 -11 1 -13 -8 -7 -8 5 -11 4 -6 -3 4 -6 12 -9 20 -6 16
6 17 31 0 31 -7 0 -10 -7 -6 -15z"/>
<path d="M2084 1564 c-18 -14 -18 -15 4 -4 12 6 22 13 22 15 0 8 -5 6 -26 -11z"/>
<path d="M2337 1564 c2 -7 11 -10 19 -7 19 7 18 10 -5 16 -13 3 -18 1 -14 -9z"/>
<path d="M4149 1563 c-13 -16 -12 -17 4 -4 16 13 21 21 13 21 -2 0 -10 -8 -17
-17z"/>
<path d="M2235 1560 c26 -11 35 -12 35 -2 0 4 -12 8 -27 9 -24 1 -25 1 -8 -7z"/>
<path d="M4086 1558 c3 -4 9 -8 15 -8 5 0 9 4 9 8 0 5 -7 9 -15 9 -8 0 -12 -4
-9 -9z"/>
<path d="M4177 1556 c-4 -11 -1 -13 10 -9 12 5 14 3 8 -7 -5 -9 -4 -11 4 -6 9
6 9 11 0 22 -14 17 -16 17 -22 0z"/>
<path d="M4270 1540 c0 -5 5 -10 10 -10 6 0 10 5 10 10 0 6 -4 10 -10 10 -5 0
-10 -4 -10 -10z"/>
<path d="M2158 1533 c7 -3 16 -2 19 1 4 3 -2 6 -13 5 -11 0 -14 -3 -6 -6z"/>
<path d="M2194 1526 c1 -8 5 -18 8 -22 4 -3 5 1 4 10 -1 8 -5 18 -8 22 -4 3
-5 -1 -4 -10z"/>
<path d="M2300 1531 c0 -7 -5 -9 -12 -5 -7 5 -8 3 -3 -5 5 -9 10 -10 18 -2 6
6 8 14 4 18 -4 3 -7 1 -7 -6z"/>
<path d="M4053 1526 c0 -7 6 -13 14 -13 7 0 13 4 13 8 0 4 -6 9 -13 12 -8 3
-14 0 -14 -7z"/>
<path d="M4142 1520 c0 -14 2 -19 5 -12 2 6 2 18 0 25 -3 6 -5 1 -5 -13z"/>
<path d="M2080 1515 c-19 -22 -8 -25 13 -3 9 10 13 18 8 18 -5 0 -14 -7 -21
-15z"/>
<path d="M4330 1520 c0 -5 5 -10 10 -10 6 0 10 5 10 10 0 6 -4 10 -10 10 -5 0
-10 -4 -10 -10z"/>
<path d="M2232 1511 c-11 -7 -11 -9 0 -14 9 -3 15 1 15 9 0 8 -1 14 -1 14 -1
0 -7 -4 -14 -9z"/>
<path d="M4175 1511 c-3 -5 0 -13 6 -17 8 -5 9 -3 4 6 -6 10 -4 12 9 7 10 -4
15 -3 11 3 -8 13 -22 13 -30 1z"/>
<path d="M2107 1489 c6 -23 9 -24 16 -5 3 8 0 17 -7 19 -10 4 -12 -1 -9 -14z"/>
<path d="M4236 1495 c-3 -9 -10 -13 -16 -10 -5 3 -10 1 -10 -4 0 -6 4 -11 9
-11 12 0 35 29 29 36 -3 3 -8 -2 -12 -11z"/>
<path d="M2203 1478 c-11 -19 -13 -39 -2 -32 5 3 7 9 4 14 -3 5 3 13 12 19 10
6 13 11 6 11 -6 0 -15 -6 -20 -12z"/>
<path d="M2267 1471 c-3 -13 -1 -18 9 -14 7 2 10 11 7 19 -7 19 -10 18 -16 -5z"/>
<path d="M4086 1482 c-3 -5 1 -9 9 -9 8 0 15 4 15 9 0 4 -4 8 -9 8 -6 0 -12
-4 -15 -8z"/>
<path d="M4150 1482 c0 -5 7 -9 15 -9 8 0 12 4 9 9 -3 4 -9 8 -15 8 -5 0 -9
-4 -9 -8z"/>
<path d="M4281 1476 c-9 -10 -8 -15 3 -19 9 -4 18 -1 22 5 5 7 2 8 -6 3 -10
-6 -12 -4 -7 8 8 21 3 22 -12 3z"/>
<path d="M4377 1475 c-4 -8 -3 -16 1 -19 4 -3 9 4 9 15 2 23 -3 25 -10 4z"/>
<path d="M2158 1473 c7 -3 16 -2 19 1 4 3 -2 6 -13 5 -11 0 -14 -3 -6 -6z"/>
<path d="M4115 1461 c-9 -15 15 -25 28 -12 9 9 7 10 -7 5 -13 -5 -17 -4 -12 4
4 7 5 12 2 12 -3 0 -7 -4 -11 -9z"/>
<path d="M2100 1451 c0 -6 4 -13 10 -16 6 -3 7 1 4 9 -7 18 -14 21 -14 7z"/>
<path d="M4162 1444 c-7 -8 -8 -14 -3 -14 10 0 25 19 20 25 -2 1 -10 -3 -17
-11z"/>
<path d="M4232 1455 c4 -4 3 -15 -2 -25 -6 -12 -5 -17 5 -17 7 0 11 6 8 13 -5
13 21 14 33 1 4 -4 12 -7 18 -7 10 1 -22 24 -34 25 -3 0 -12 4 -20 9 -8 5 -12
6 -8 1z"/>
<path d="M2227 1433 c5 -12 3 -14 -7 -8 -9 6 -11 4 -5 -5 6 -10 10 -10 19 2 6
8 18 13 26 10 8 -3 12 -2 9 2 -4 4 -16 8 -27 11 -16 3 -19 0 -15 -12z"/>
<path d="M2290 1439 c0 -5 5 -7 10 -4 6 3 10 8 10 11 0 2 -4 4 -10 4 -5 0 -10
-5 -10 -11z"/>
<path d="M4347 1428 c-5 -21 -5 -21 7 -6 7 10 17 14 21 10 5 -4 5 -1 1 6 -11
19 -23 14 -29 -10z"/>
<path d="M2097 1419 c7 -7 15 -10 18 -7 3 3 -2 9 -12 12 -14 6 -15 5 -6 -5z"/>
<path d="M4392 1425 c4 -4 3 -14 -4 -22 -6 -7 -9 -15 -7 -18 3 -2 10 4 17 15
9 15 9 21 -1 26 -6 4 -9 4 -5 -1z"/>
<path d="M4110 1416 c0 -2 7 -9 15 -16 9 -7 15 -8 15 -2 0 5 -7 12 -15 16 -8
3 -15 4 -15 2z"/>
<path d="M4178 1408 c5 -5 16 -8 23 -6 8 3 3 7 -10 11 -17 4 -21 3 -13 -5z"/>
<path d="M4235 1391 c-3 -5 0 -13 6 -17 8 -5 9 -3 4 6 -6 10 -4 12 9 7 10 -4
15 -3 11 3 -8 13 -22 13 -30 1z"/>
<path d="M2157 1375 c-4 -8 -3 -16 1 -19 4 -3 9 4 9 15 2 23 -3 25 -10 4z"/>
<path d="M2205 1379 c-4 -6 -5 -12 -2 -15 2 -3 7 2 10 11 7 17 1 20 -8 4z"/>
<path d="M4153 1383 c4 -3 2 -12 -5 -20 -6 -7 -8 -16 -4 -20 3 -3 6 -1 6 6 0
7 4 10 8 7 4 -2 9 4 9 15 1 10 -3 19 -9 19 -6 0 -8 -3 -5 -7z"/>
<path d="M4321 1364 c0 -11 3 -14 6 -6 3 7 2 16 -1 19 -3 4 -6 -2 -5 -13z"/>
<path d="M4204 1362 c4 -3 14 -7 22 -8 9 -1 13 0 10 4 -4 3 -14 7 -22 8 -9 1
-13 0 -10 -4z"/>
<path d="M4386 1359 c3 -5 9 -7 14 -4 4 3 11 0 13 -5 3 -6 4 -5 3 1 -1 7 -10
13 -19 15 -9 1 -15 -2 -11 -7z"/>
<path d="M4196 1338 c5 -7 2 -9 -9 -5 -11 4 -14 2 -10 -9 4 -11 9 -12 19 -3
12 10 11 29 -2 29 -3 0 -2 -5 2 -12z"/>
<path d="M4270 1340 c0 -5 5 -10 10 -10 6 0 10 5 10 10 0 6 -4 10 -10 10 -5 0
-10 -4 -10 -10z"/>
<path d="M4375 1340 c6 -10 4 -12 -8 -7 -21 8 -22 3 -3 -12 10 -9 15 -8 19 3
4 9 1 18 -5 22 -7 5 -8 2 -3 -6z"/>
<path d="M2155 1330 c-3 -6 1 -7 9 -4 18 7 21 14 7 14 -6 0 -13 -4 -16 -10z"/>
<path d="M4140 1326 c0 -2 8 -10 18 -17 15 -13 16 -12 3 4 -13 16 -21 21 -21
13z"/>
<path d="M4400 1315 c-7 -8 -9 -15 -5 -15 4 0 1 -8 -6 -17 -7 -10 -10 -15 -5
-11 5 4 16 3 26 -2 12 -6 17 -5 17 5 0 7 -6 11 -13 8 -13 -5 -14 14 -1 35 11
17 2 15 -13 -3z"/>
<path d="M4236 1311 c-3 -5 1 -11 9 -14 9 -4 12 -1 8 9 -6 16 -10 17 -17 5z"/>
<path d="M4307 1306 c-4 -10 -1 -13 8 -9 8 3 12 9 9 14 -7 12 -11 11 -17 -5z"/>
<path d="M4130 1290 c-9 -6 -10 -10 -3 -10 6 0 15 5 18 10 8 12 4 12 -15 0z"/>
<path d="M4159 1288 c-7 -24 -4 -40 9 -50 15 -11 15 -11 6 2 -6 8 -10 23 -9
33 3 13 -2 26 -6 15z"/>
<path d="M4280 1280 c8 -5 20 -10 25 -10 6 0 3 5 -5 10 -8 5 -19 10 -25 10 -5
0 -3 -5 5 -10z"/>
<path d="M4343 1279 c9 -6 15 -14 12 -20 -4 -5 -1 -9 4 -9 6 0 11 4 11 8 0 12
-22 32 -34 32 -6 0 -3 -5 7 -11z"/>
<path d="M4180 1276 c0 -2 7 -7 16 -10 8 -3 12 -2 9 4 -6 10 -25 14 -25 6z"/>
<path d="M4210 1238 c0 -4 4 -8 9 -8 6 0 12 4 15 8 3 5 -1 9 -9 9 -8 0 -15 -4
-15 -9z"/>
<path d="M4325 1242 c-5 -4 -11 -12 -12 -19 -3 -13 22 -12 34 2 5 4 2 5 -6 0
-11 -6 -13 -4 -8 8 7 19 6 20 -8 9z"/>
<path d="M4239 1228 c0 -2 -2 -13 -3 -25 -3 -23 19 -22 28 2 3 10 0 12 -11 8
-11 -4 -14 -2 -9 5 4 7 5 12 2 12 -3 0 -6 -1 -7 -2z"/>
<path d="M4171 1204 c0 -11 3 -14 6 -6 3 7 2 16 -1 19 -3 4 -6 -2 -5 -13z"/>
<path d="M4355 1210 c-8 -13 3 -30 18 -30 8 0 7 3 -2 9 -7 5 -10 14 -7 20 4 6
5 11 2 11 -3 0 -8 -4 -11 -10z"/>
<path d="M4380 1216 c0 -2 7 -7 16 -10 8 -3 12 -2 9 4 -6 10 -25 14 -25 6z"/>
<path d="M4276 1193 c-6 -14 -5 -15 5 -6 7 7 10 15 7 18 -3 3 -9 -2 -12 -12z"/>
<path d="M4436 1195 c-11 -8 -15 -15 -9 -15 7 0 15 5 18 10 4 6 11 8 16 5 5
-4 9 -1 9 4 0 15 -11 13 -34 -4z"/>
<path d="M4315 1181 c6 -11 4 -13 -11 -8 -17 6 -17 6 -3 -5 9 -7 16 -17 17
-21 0 -5 4 -12 8 -15 4 -4 3 -1 -1 7 -6 11 -4 13 11 8 17 -6 17 -6 3 5 -9 7
-16 17 -17 21 0 5 -4 12 -8 15 -4 4 -3 1 1 -7z"/>
<path d="M4200 1160 c18 -12 30 -13 30 -2 0 4 -10 9 -22 9 -18 2 -20 0 -8 -7z"/>
<path d="M4410 1166 c0 -2 7 -7 16 -10 8 -3 12 -2 9 4 -6 10 -25 14 -25 6z"/>
<path d="M4455 1150 c-4 -6 1 -7 11 -3 13 5 15 3 9 -7 -5 -9 -4 -11 4 -6 6 4
9 12 6 17 -8 12 -22 12 -30 -1z"/>
<path d="M4270 1133 c5 -2 8 -9 5 -13 -3 -5 -1 -11 4 -14 5 -4 8 2 7 11 -2 9
-8 18 -15 19 -6 1 -7 0 -1 -3z"/>
<path d="M4355 1129 c-4 -6 -5 -12 -2 -15 2 -3 7 2 10 11 7 17 1 20 -8 4z"/>
<path d="M4436 1127 c3 -10 9 -15 12 -12 3 3 0 11 -7 18 -10 9 -11 8 -5 -6z"/>
<path d="M4390 1100 c0 -5 5 -10 10 -10 6 0 10 5 10 10 0 6 -4 10 -10 10 -5 0
-10 -4 -10 -10z"/>
<path d="M4221 1097 c2 -1 12 -9 22 -16 15 -12 17 -12 11 3 -3 9 -13 16 -22
16 -8 0 -13 -1 -11 -3z"/>
<path d="M4280 1075 c-7 -8 -9 -15 -5 -15 4 0 1 -8 -6 -17 -13 -16 -12 -17 4
-4 9 8 15 16 12 19 -3 3 0 11 6 19 6 7 9 13 6 13 -2 0 -10 -7 -17 -15z"/>
<path d="M4416 1071 c-4 -5 3 -7 14 -4 23 6 26 13 6 13 -8 0 -17 -4 -20 -9z"/>
<path d="M4324 1055 c-4 -8 -11 -12 -17 -8 -6 3 -7 1 -3 -5 11 -18 23 -14 29
8 6 23 -1 27 -9 5z"/>
<path d="M4466 1056 c6 -15 4 -17 -6 -11 -9 6 -11 4 -5 -4 5 -9 10 -10 18 -2
8 8 7 14 -2 24 -10 10 -11 8 -5 -7z"/>
<path d="M4215 1040 c3 -5 8 -10 11 -10 2 0 4 5 4 10 0 6 -5 10 -11 10 -5 0
-7 -4 -4 -10z"/>
<path d="M4380 1040 c-8 -5 -10 -10 -5 -10 6 0 17 5 25 10 8 5 11 10 5 10 -5
0 -17 -5 -25 -10z"/>
<path d="M4240 1031 c0 -6 4 -13 10 -16 6 -3 7 1 4 9 -7 18 -14 21 -14 7z"/>
<path d="M4433 1025 c0 -8 4 -15 9 -15 4 0 8 4 8 9 0 6 -4 12 -8 15 -5 3 -9
-1 -9 -9z"/>
<path d="M4510 1030 c-9 -6 -10 -10 -3 -10 6 0 15 5 18 10 8 12 4 12 -15 0z"/>
<path d="M4533 999 c-2 -23 3 -25 10 -4 4 8 3 16 -1 19 -4 3 -9 -4 -9 -15z"/>
<path d="M4337 995 c-4 -8 -1 -17 5 -21 7 -5 8 -2 3 6 -6 10 -4 12 10 6 15 -5
16 -4 5 9 -15 19 -16 19 -23 0z"/>
<path d="M4397 996 c-17 -13 -16 -14 3 -19 11 -3 23 0 27 5 4 7 1 8 -7 3 -10
-6 -12 -4 -7 8 8 20 7 20 -16 3z"/>
<path d="M4313 971 c0 -11 5 -18 9 -15 4 3 5 11 1 19 -7 21 -12 19 -10 -4z"/>
<path d="M4468 973 c6 -2 10 -9 7 -13 -3 -5 0 -12 6 -16 8 -4 9 -3 5 4 -4 7
-1 12 6 12 9 0 9 3 -2 10 -8 5 -19 9 -25 9 -5 0 -4 -3 3 -6z"/>
<path d="M4250 958 c0 -4 4 -8 9 -8 6 0 12 4 15 8 3 5 -1 9 -9 9 -8 0 -15 -4
-15 -9z"/>
<path d="M4335 950 c-4 -6 1 -7 11 -3 13 5 15 3 9 -7 -5 -9 -4 -11 4 -6 6 4 9
12 6 17 -8 12 -22 12 -30 -1z"/>
<path d="M4427 933 c5 -12 3 -14 -7 -8 -9 5 -11 4 -6 -4 6 -9 11 -9 22 0 17
14 17 16 0 22 -11 4 -13 1 -9 -10z"/>
<path d="M4516 933 c-6 -14 -5 -15 5 -6 7 7 10 15 7 18 -3 3 -9 -2 -12 -12z"/>
<path d="M4270 936 c0 -2 7 -9 15 -16 9 -7 15 -8 15 -2 0 5 -7 12 -15 16 -8 3
-15 4 -15 2z"/>
<path d="M4314 920 c0 -13 4 -16 10 -10 7 7 7 13 0 20 -6 6 -10 3 -10 -10z"/>
<path d="M4541 934 c-1 -6 2 -14 6 -18 13 -12 12 -38 -1 -33 -7 3 -13 -1 -13
-8 0 -8 7 -11 15 -7 11 4 13 1 7 -9 -5 -8 -4 -11 1 -6 10 10 13 78 3 71 -4 -2
-10 2 -12 8 -3 7 -6 8 -6 2z"/>
<path d="M4370 920 c0 -5 5 -10 10 -10 6 0 10 5 10 10 0 6 -4 10 -10 10 -5 0
-10 -4 -10 -10z"/>
<path d="M4480 920 c-9 -6 -10 -10 -3 -10 6 0 15 5 18 10 8 12 4 12 -15 0z"/>
<path d="M4506 896 c6 -15 4 -17 -6 -11 -9 6 -11 4 -5 -4 5 -9 10 -10 18 -2 8
8 7 14 -2 24 -10 10 -11 8 -5 -7z"/>
<path d="M4341 883 c7 -10 15 -20 16 -22 2 -2 3 3 3 11 0 9 -7 19 -16 22 -15
6 -15 4 -3 -11z"/>
<path d="M4420 888 c0 -9 7 -19 16 -22 15 -6 15 -4 3 11 -7 10 -15 20 -16 22
-2 2 -3 -3 -3 -11z"/>
<path d="M4300 880 c-9 -6 -10 -10 -3 -10 6 0 15 5 18 10 8 12 4 12 -15 0z"/>
<path d="M4319 848 c7 -10 17 -15 22 -13 4 3 12 -3 18 -12 6 -10 11 -13 11 -7
0 6 -7 17 -15 24 -8 7 -15 9 -15 5 0 -4 -8 -1 -17 6 -16 13 -17 12 -4 -3z"/>
<path d="M4386 842 c-2 -4 4 -8 14 -8 10 0 16 4 14 8 -3 4 -9 8 -14 8 -5 0
-11 -4 -14 -8z"/>
<path d="M4437 831 c-10 -12 -9 -13 3 -6 8 5 21 10 28 11 24 4 25 13 3 11 -12
-1 -28 -8 -34 -16z"/>
<path d="M4520 836 c0 -8 4 -17 9 -20 5 -4 7 3 4 14 -6 23 -13 26 -13 6z"/>
<path d="M4570 840 c0 -5 5 -10 10 -10 6 0 10 5 10 10 0 6 -4 10 -10 10 -5 0
-10 -4 -10 -10z"/>
<path d="M4614 822 c3 -5 0 -13 -6 -15 -9 -4 -10 -6 -1 -6 17 -1 25 16 12 25
-7 4 -9 3 -5 -4z"/>
<path d="M4310 810 c0 -5 10 -14 23 -20 20 -10 20 -10 5 3 -10 8 -15 17 -11
20 3 4 1 7 -5 7 -7 0 -12 -4 -12 -10z"/>
<path d="M4455 790 c-4 -6 1 -7 11 -3 11 4 15 3 10 -5 -3 -6 -1 -14 5 -18 8
-4 9 -3 5 4 -4 7 -1 12 6 12 9 0 9 3 -2 10 -19 12 -27 12 -35 0z"/>
<path d="M4533 778 c-4 -7 -1 -8 7 -3 10 6 12 4 6 -10 -6 -16 -4 -16 11 -4 10
7 19 14 21 15 1 1 -6 4 -18 7 -11 3 -23 0 -27 -5z"/>
<path d="M4615 780 c6 -10 4 -12 -8 -7 -21 8 -22 3 -3 -12 10 -9 15 -8 19 3 4
9 1 18 -5 22 -7 5 -8 2 -3 -6z"/>
<path d="M4378 768 c5 -5 16 -8 23 -6 8 3 3 7 -10 11 -17 4 -21 3 -13 -5z"/>
<path d="M4510 741 c0 -5 8 -15 18 -22 15 -12 16 -12 5 2 -7 9 -10 19 -6 22 3
4 1 7 -5 7 -7 0 -12 -4 -12 -9z"/>
<path d="M4634 725 c0 -28 8 -24 13 5 2 11 -1 20 -5 20 -4 0 -8 -11 -8 -25z"/>
<path d="M4420 720 c8 -5 20 -10 25 -10 6 0 3 5 -5 10 -8 5 -19 10 -25 10 -5
0 -3 -5 5 -10z"/>
<path d="M4476 719 c2 -4 -2 -10 -8 -12 -10 -4 -10 -6 0 -6 7 -1 10 -6 6 -13
-4 -7 -3 -8 5 -4 6 4 8 12 5 18 -5 7 -1 9 9 5 10 -4 14 -2 11 7 -3 7 -11 13
-19 13 -8 0 -12 -4 -9 -8z"/>
<path d="M4570 719 c0 -5 5 -7 12 -3 8 5 9 1 4 -12 -5 -14 -4 -16 5 -7 6 6 8
16 5 22 -9 14 -26 14 -26 0z"/>
<path d="M4401 688 c9 -16 29 -17 29 -2 0 3 -5 2 -12 -2 -7 -5 -9 -2 -6 8 4 8
0 15 -7 15 -10 0 -11 -5 -4 -19z"/>
<path d="M4673 695 c0 -8 4 -12 9 -9 5 3 6 10 3 15 -9 13 -12 11 -12 -6z"/>
<path d="M4550 686 c0 -2 7 -7 16 -10 8 -3 12 -2 9 4 -6 10 -25 14 -25 6z"/>
<path d="M4625 679 c-4 -6 -5 -12 -2 -15 2 -3 7 2 10 11 7 17 1 20 -8 4z"/>
<path d="M4430 660 c0 -5 5 -10 10 -10 6 0 10 5 10 10 0 6 -4 10 -10 10 -5 0
-10 -4 -10 -10z"/>
<path d="M4680 666 c0 -2 7 -7 16 -10 8 -3 12 -2 9 4 -6 10 -25 14 -25 6z"/>
<path d="M4475 640 c-3 -5 -1 -10 4 -10 6 0 11 5 11 10 0 6 -2 10 -4 10 -3 0
-8 -4 -11 -10z"/>
<path d="M4530 640 c0 -5 5 -10 10 -10 6 0 10 5 10 10 0 6 -4 10 -10 10 -5 0
-10 -4 -10 -10z"/>
<path d="M4707 626 c-4 -10 -3 -15 3 -11 6 3 10 1 10 -6 0 -7 3 -10 6 -6 3 3
2 13 -4 22 -8 16 -9 16 -15 1z"/>
<path d="M4430 620 c0 -5 5 -10 11 -10 5 0 7 5 4 10 -3 6 -8 10 -11 10 -2 0
-4 -4 -4 -10z"/>
<path d="M4620 613 c0 -7 5 -15 10 -18 6 -4 8 -11 5 -16 -4 -5 -1 -9 4 -9 15
0 13 11 -4 34 -8 11 -15 15 -15 9z"/>
<path d="M4658 608 c5 -5 16 -8 23 -6 8 3 3 7 -10 11 -17 4 -21 3 -13 -5z"/>
<path d="M4560 600 c-9 -6 -10 -10 -3 -10 6 0 15 5 18 10 8 12 4 12 -15 0z"/>
<path d="M4587 574 c4 -10 2 -15 -4 -11 -5 3 -10 0 -10 -7 0 -8 7 -12 15 -8
11 4 13 1 7 -8 -5 -8 -4 -11 3 -7 11 8 5 44 -9 53 -5 3 -6 -3 -2 -12z"/>
<path d="M4730 579 c0 -5 5 -7 10 -4 6 3 10 8 10 11 0 2 -4 4 -10 4 -5 0 -10
-5 -10 -11z"/>
<path d="M4491 571 c-8 -5 -16 -17 -17 -26 -1 -9 1 -14 4 -10 4 4 6 9 4 12 -2
3 5 11 15 19 20 15 16 19 -6 5z"/>
<path d="M4635 530 c-4 -6 -11 -8 -16 -5 -5 4 -9 1 -9 -4 0 -15 11 -13 34 4
11 8 15 15 9 15 -7 0 -15 -5 -18 -10z"/>
<path d="M4486 522 c-3 -5 1 -9 9 -9 8 0 15 4 15 9 0 4 -4 8 -9 8 -6 0 -12 -4
-15 -8z"/>
<path d="M4544 522 c4 -3 14 -7 22 -8 9 -1 13 0 10 4 -4 3 -14 7 -22 8 -9 1
-13 0 -10 -4z"/>
<path d="M4680 515 c-11 -13 -10 -14 4 -9 9 3 16 10 16 15 0 13 -6 11 -20 -6z"/>
<path d="M4723 518 c-11 -19 -12 -37 -3 -43 5 -3 7 3 5 12 -1 10 2 24 8 31 5
6 7 12 4 12 -3 0 -9 -6 -14 -12z"/>
<path d="M4770 522 c0 -5 7 -9 15 -9 8 0 12 4 9 9 -3 4 -9 8 -15 8 -5 0 -9 -4
-9 -8z"/>
<path d="M4513 484 c0 -16 13 -19 21 -5 3 5 0 11 -7 14 -8 3 -14 -1 -14 -9z"/>
<path d="M4571 493 c-1 -17 16 -25 25 -12 4 7 3 9 -4 5 -5 -3 -13 0 -15 6 -4
9 -6 10 -6 1z"/>
<path d="M4760 491 c0 -6 4 -13 10 -16 6 -3 7 1 4 9 -7 18 -14 21 -14 7z"/>
<path d="M4624 474 c-18 -14 -18 -15 4 -4 12 6 22 13 22 15 0 8 -5 6 -26 -11z"/>
<path d="M4667 479 c7 -9 10 -19 6 -22 -3 -4 -1 -7 5 -7 17 0 15 16 -5 31 -16
12 -17 12 -6 -2z"/>
<path d="M4741 474 c0 -11 3 -14 6 -6 3 7 2 16 -1 19 -3 4 -6 -2 -5 -13z"/>
<path d="M4535 460 c-7 -11 22 -26 32 -16 4 3 -1 6 -11 6 -9 0 -14 5 -11 10 3
6 4 10 1 10 -3 0 -8 -5 -11 -10z"/>
<path d="M4816 458 c3 -5 10 -6 15 -3 13 9 11 12 -6 12 -8 0 -12 -4 -9 -9z"/>
<path d="M4597 436 c-3 -8 0 -17 7 -19 10 -4 12 1 9 14 -6 23 -9 24 -16 5z"/>
<path d="M4644 439 c-3 -6 -1 -16 5 -22 9 -9 10 -7 5 7 -6 15 -4 17 6 11 9 -5
11 -4 6 3 -9 15 -13 15 -22 1z"/>
<path d="M4747 431 c-3 -13 -1 -18 9 -14 7 2 10 11 7 19 -7 19 -10 18 -16 -5z"/>
<path d="M4795 440 c3 -5 8 -10 11 -10 2 0 4 5 4 10 0 6 -5 10 -11 10 -5 0 -7
-4 -4 -10z"/>
<path d="M4825 400 c0 -15 3 -26 8 -23 4 2 7 13 7 23 0 14 5 18 18 13 9 -3 14
-3 11 1 -4 4 -15 8 -25 10 -15 3 -19 -2 -19 -24z"/>
<path d="M4708 413 c6 -2 9 -10 6 -15 -4 -7 -2 -8 5 -4 13 9 5 26 -12 25 -9 0
-8 -2 1 -6z"/>
<path d="M4570 400 c0 -5 5 -10 10 -10 6 0 10 5 10 10 0 6 -4 10 -10 10 -5 0
-10 -4 -10 -10z"/>
<path d="M4630 400 c0 -5 5 -10 11 -10 5 0 7 5 4 10 -3 6 -8 10 -11 10 -2 0
-4 -4 -4 -10z"/>
<path d="M4665 400 c-3 -6 1 -7 9 -4 18 7 21 14 7 14 -6 0 -13 -4 -16 -10z"/>
<path d="M4760 400 c-9 -6 -10 -10 -3 -10 6 0 15 5 18 10 8 12 4 12 -15 0z"/>
<path d="M4682 381 c-10 -6 -10 -10 2 -20 11 -9 16 -9 22 0 5 8 3 9 -6 4 -10
-6 -12 -4 -7 8 7 19 7 20 -11 8z"/>
<path d="M4725 379 c-4 -6 -5 -12 -2 -15 2 -3 7 2 10 11 7 17 1 20 -8 4z"/>
<path d="M4786 375 c4 -8 11 -15 16 -15 6 0 5 6 -2 15 -7 8 -14 15 -16 15 -2
0 -1 -7 2 -15z"/>
<path d="M4870 380 c0 -5 5 -10 11 -10 5 0 7 5 4 10 -3 6 -8 10 -11 10 -2 0
-4 -4 -4 -10z"/>
<path d="M4897 355 c-4 -8 -3 -16 1 -19 4 -3 9 4 9 15 2 23 -3 25 -10 4z"/>
<path d="M4633 335 c0 -8 4 -12 9 -9 4 3 8 9 8 15 0 5 -4 9 -8 9 -5 0 -9 -7
-9 -15z"/>
<path d="M4750 340 c0 -5 5 -10 10 -10 6 0 10 5 10 10 0 6 -4 10 -10 10 -5 0
-10 -4 -10 -10z"/>
<path d="M4801 332 c-7 -14 -6 -19 4 -19 7 0 11 7 7 15 -4 11 -1 13 8 7 9 -5
11 -4 6 3 -10 16 -14 15 -25 -6z"/>
<path d="M4683 320 c-11 -16 -10 -18 2 -14 8 4 15 12 15 20 0 19 -3 18 -17 -6z"/>
<path d="M4713 315 c0 -8 4 -12 9 -9 5 3 6 10 3 15 -9 13 -12 11 -12 -6z"/>
<path d="M4933 315 c0 -8 4 -12 9 -9 5 3 6 10 3 15 -9 13 -12 11 -12 -6z"/>
<path d="M4736 302 c-2 -4 -1 -14 3 -20 6 -10 11 -9 21 3 11 13 10 14 -5 9
-13 -5 -16 -4 -11 4 4 7 5 12 2 12 -3 0 -7 -4 -10 -8z"/>
<path d="M4855 300 c-7 -11 22 -26 32 -16 4 3 -1 6 -11 6 -9 0 -14 5 -11 10 3
6 4 10 1 10 -3 0 -8 -5 -11 -10z"/>
<path d="M4820 280 c-9 -6 -10 -10 -3 -10 6 0 15 5 18 10 8 12 4 12 -15 0z"/>
<path d="M4917 276 c-3 -8 0 -17 7 -19 10 -4 12 1 9 14 -6 23 -9 24 -16 5z"/>
<path d="M4797 259 c7 -7 15 -10 18 -7 3 3 -2 9 -12 12 -14 6 -15 5 -6 -5z"/>
<path d="M4701 244 c0 -11 3 -14 6 -6 3 7 2 16 -1 19 -3 4 -6 -2 -5 -13z"/>
<path d="M4833 245 c0 -8 4 -15 9 -15 4 0 8 4 8 9 0 6 -4 12 -8 15 -5 3 -9 -1
-9 -9z"/>
<path d="M4954 249 c-3 -6 -2 -15 3 -20 5 -5 9 -1 9 11 0 23 -2 24 -12 9z"/>
<path d="M4760 240 c-8 -5 -10 -10 -5 -10 6 0 17 5 25 10 8 5 11 10 5 10 -5 0
-17 -5 -25 -10z"/>
<path d="M4886 242 c-3 -5 1 -9 9 -9 8 0 15 4 15 9 0 4 -4 8 -9 8 -6 0 -12 -4
-15 -8z"/>
<path d="M4987 239 c7 -7 15 -10 18 -7 3 3 -2 9 -12 12 -14 6 -15 5 -6 -5z"/>
<path d="M4715 221 c-3 -6 3 -14 13 -20 14 -7 19 -6 19 4 0 7 -7 11 -15 7 -10
-3 -13 -1 -8 6 4 7 5 12 2 12 -3 0 -7 -4 -11 -9z"/>
<path d="M4866 216 c6 -15 4 -17 -6 -11 -9 6 -11 4 -5 -4 5 -9 10 -10 18 -2 8
8 7 14 -2 24 -10 10 -11 8 -5 -7z"/>
<path d="M4906 204 c-5 -14 -4 -15 9 -4 17 14 19 20 6 20 -5 0 -12 -7 -15 -16z"/>
<path d="M4970 210 c-9 -6 -10 -10 -3 -10 6 0 15 5 18 10 8 12 4 12 -15 0z"/>
<path d="M4788 192 c4 -11 1 -13 -8 -7 -9 5 -11 4 -6 -3 10 -16 14 -15 25 6 7
14 6 19 -4 19 -7 0 -11 -7 -7 -15z"/>
<path d="M5015 200 c-3 -5 -1 -10 4 -10 6 0 11 5 11 10 0 6 -2 10 -4 10 -3 0
-8 -4 -11 -10z"/>
<path d="M4830 180 c0 -5 5 -10 10 -10 6 0 10 5 10 10 0 6 -4 10 -10 10 -5 0
-10 -4 -10 -10z"/>
<path d="M4950 179 c0 -5 5 -7 10 -4 6 3 10 8 10 11 0 2 -4 4 -10 4 -5 0 -10
-5 -10 -11z"/>
<path d="M4753 165 c0 -8 4 -15 9 -15 4 0 8 4 8 9 0 6 -4 12 -8 15 -5 3 -9 -1
-9 -9z"/>
<path d="M4897 161 c-3 -15 -1 -18 11 -14 11 5 13 3 7 -7 -5 -9 -4 -11 4 -6 9
6 9 12 -1 24 -7 10 -13 18 -14 20 -1 1 -4 -6 -7 -17z"/>
<path d="M4995 170 c-3 -6 1 -7 9 -4 18 7 21 14 7 14 -6 0 -13 -4 -16 -10z"/>
<path d="M5035 170 c3 -5 8 -10 11 -10 2 0 4 5 4 10 0 6 -5 10 -11 10 -5 0 -7
-4 -4 -10z"/>
<path d="M4987 129 c4 -13 8 -18 11 -10 2 7 -1 18 -6 23 -8 8 -9 4 -5 -13z"/>
<path d="M4786 124 c-6 -15 -4 -15 11 -3 10 7 20 15 22 16 2 2 -3 3 -11 3 -9
0 -19 -7 -22 -16z"/>
<path d="M4846 131 c-17 -6 -17 -8 -4 -14 10 -3 19 0 22 9 3 8 4 14 3 13 -1 0
-11 -4 -21 -8z"/>
<path d="M4930 118 c0 -10 17 -10 24 0 3 5 -1 9 -9 9 -8 0 -15 -4 -15 -9z"/>
<path d="M5040 120 c-9 -6 -10 -10 -3 -10 6 0 15 5 18 10 8 12 4 12 -15 0z"/>
<path d="M5070 126 c0 -2 7 -7 16 -10 8 -3 12 -2 9 4 -6 10 -25 14 -25 6z"/>
<path d="M5055 99 c-6 -8 -4 -10 5 -4 10 6 12 4 6 -11 -6 -15 -5 -17 5 -6 9 9
10 15 2 23 -8 8 -13 7 -18 -2z"/>
<path d="M4891 84 c0 -11 3 -14 6 -6 3 7 2 16 -1 19 -3 4 -6 -2 -5 -13z"/>
<path d="M4972 91 c-11 -7 -11 -9 0 -14 9 -3 15 1 15 9 0 8 -1 14 -1 14 -1 0
-7 -4 -14 -9z"/>
<path d="M4830 80 c0 -5 5 -10 11 -10 5 0 7 5 4 10 -3 6 -8 10 -11 10 -2 0 -4
-4 -4 -10z"/>
<path d="M4907 71 c-4 -17 -3 -21 5 -13 5 5 8 16 6 23 -3 8 -7 3 -11 -10z"/>
<path d="M5005 79 c-4 -6 -5 -12 -2 -15 2 -3 7 2 10 11 7 17 1 20 -8 4z"/>
<path d="M5091 74 c0 -11 3 -14 6 -6 3 7 2 16 -1 19 -3 4 -6 -2 -5 -13z"/>
<path d="M4950 61 c0 -5 8 -15 18 -22 15 -12 16 -12 5 2 -7 9 -10 19 -6 22 3
4 1 7 -5 7 -7 0 -12 -4 -12 -9z"/>
<path d="M4858 48 c5 -5 16 -8 23 -6 8 3 3 7 -10 11 -17 4 -21 3 -13 -5z"/>
<path d="M5000 36 c-6 -6 -10 -15 -10 -20 0 -6 4 -5 9 3 5 8 17 16 26 17 25 4
30 13 6 11 -12 -1 -26 -6 -31 -11z"/>
<path d="M5077 36 c-3 -8 0 -17 7 -19 10 -4 12 1 9 14 -6 23 -9 24 -16 5z"/>
<path d="M4885 19 c-4 -6 -5 -12 -2 -15 2 -3 7 2 10 11 7 17 1 20 -8 4z"/>
</g>
</svg>
